<?xml version="1.0" encoding="UTF-8"?>
<!-- Generator: visioncortex VTracer 0.6.12 -->
<svg version="1.1" xmlns="http://www.w3.org/2000/svg" width="810" height="768">
<path d="M0 0 C1.98 0 3.96 0 6 0 C6 1.98 6 3.96 6 6 C9.96 6 13.92 6 18 6 C18 7.98 18 9.96 18 12 C21.96 12 25.92 12 30 12 C30 13.98 30 15.96 30 18 C31.98 18 33.96 18 36 18 C36 19.98 36 21.96 36 24 C39.96 24 43.92 24 48 24 C48 25.98 48 27.96 48 30 C51.96 30 55.92 30 60 30 C60 31.98 60 33.96 60 36 C63.96 36 67.92 36 72 36 C72 37.98 72 39.96 72 42 C73.98 42 75.96 42 78 42 C78 43.98 78 45.96 78 48 C81.96 48 85.92 48 90 48 C90 49.98 90 51.96 90 54 C93.96 54 97.92 54 102 54 C102 55.98 102 57.96 102 60 C105.96 60 109.92 60 114 60 C114 61.98 114 63.96 114 66 C115.98 66 117.96 66 120 66 C120 67.98 120 69.96 120 72 C123.96 72 127.92 72 132 72 C132 73.98 132 75.96 132 78 C135.96 78 139.92 78 144 78 C144 79.98 144 81.96 144 84 C147.96 84 151.92 84 156 84 C156 85.98 156 87.96 156 90 C157.98 90 159.96 90 162 90 C162 91.98 162 93.96 162 96 C163.98 96 165.96 96 168 96 C168 99.96 168 103.92 168 108 C173.94 108 179.88 108 186 108 C186 109.98 186 111.96 186 114 C187.98 114 189.96 114 192 114 C192 115.98 192 117.96 192 120 C193.98 120 195.96 120 198 120 C198 121.98 198 123.96 198 126 C199.98 126 201.96 126 204 126 C204 127.98 204 129.96 204 132 C205.98 132 207.96 132 210 132 C210 133.98 210 135.96 210 138 C211.98 138 213.96 138 216 138 C216 139.98 216 141.96 216 144 C217.98 144 219.96 144 222 144 C222 147.96 222 151.92 222 156 C220.02 156 218.04 156 216 156 C216 159.96 216 163.92 216 168 C212.04 168 208.08 168 204 168 C204 171.96 204 175.92 204 180 C202.02 180 200.04 180 198 180 C198 181.98 198 183.96 198 186 C196.02 186 194.04 186 192 186 C192 187.98 192 189.96 192 192 C190.02 192 188.04 192 186 192 C186 193.98 186 195.96 186 198 C180.06 198 174.12 198 168 198 C168 213.84 168 229.68 168 246 C169.98 246 171.96 246 174 246 C174 247.98 174 249.96 174 252 C175.98 252 177.96 252 180 252 C180 253.98 180 255.96 180 258 C181.98 258 183.96 258 186 258 C186 261.96 186 265.92 186 270 C187.98 270 189.96 270 192 270 C192 271.98 192 273.96 192 276 C190.02 276 188.04 276 186 276 C186 279.96 186 283.92 186 288 C182.04 288 178.08 288 174 288 C174 289.98 174 291.96 174 294 C172.02 294 170.04 294 168 294 C168 295.98 168 297.96 168 300 C181.86 300 195.72 300 210 300 C210 286.14 210 272.28 210 258 C208.02 258 206.04 258 204 258 C204 256.02 204 254.04 204 252 C202.02 252 200.04 252 198 252 C198 250.02 198 248.04 198 246 C201.96 246 205.92 246 210 246 C210 247.98 210 249.96 210 252 C215.94 252 221.88 252 228 252 C228 250.02 228 248.04 228 246 C229.98 246 231.96 246 234 246 C234 244.02 234 242.04 234 240 C235.98 240 237.96 240 240 240 C240 234.06 240 228.12 240 222 C238.02 222 236.04 222 234 222 C234 218.04 234 214.08 234 210 C235.98 210 237.96 210 240 210 C240 211.98 240 213.96 240 216 C241.98 216 243.96 216 246 216 C246 225.9 246 235.8 246 246 C244.02 246 242.04 246 240 246 C240 247.98 240 249.96 240 252 C238.02 252 236.04 252 234 252 C234 253.98 234 255.96 234 258 C232.02 258 230.04 258 228 258 C228 271.86 228 285.72 228 300 C245.82 300 263.64 300 282 300 C282 274.26 282 248.52 282 222 C280.02 222 278.04 222 276 222 C276 220.02 276 218.04 276 216 C272.04 216 268.08 216 264 216 C264 214.02 264 212.04 264 210 C262.02 210 260.04 210 258 210 C258 208.02 258 206.04 258 204 C256.02 204 254.04 204 252 204 C252 200.04 252 196.08 252 192 C250.02 192 248.04 192 246 192 C246 182.1 246 172.2 246 162 C247.98 162 249.96 162 252 162 C252 158.04 252 154.08 252 150 C253.98 150 255.96 150 258 150 C258 148.02 258 146.04 258 144 C259.98 144 261.96 144 264 144 C264 142.02 264 140.04 264 138 C267.96 138 271.92 138 276 138 C276 136.02 276 134.04 276 132 C285.9 132 295.8 132 306 132 C306 133.98 306 135.96 306 138 C309.96 138 313.92 138 318 138 C318 139.98 318 141.96 318 144 C319.98 144 321.96 144 324 144 C324 145.98 324 147.96 324 150 C325.98 150 327.96 150 330 150 C330 153.96 330 157.92 330 162 C331.98 162 333.96 162 336 162 C336 171.9 336 181.8 336 192 C334.02 192 332.04 192 330 192 C330 195.96 330 199.92 330 204 C328.02 204 326.04 204 324 204 C324 205.98 324 207.96 324 210 C322.02 210 320.04 210 318 210 C318 211.98 318 213.96 318 216 C314.04 216 310.08 216 306 216 C306 243.72 306 271.44 306 300 C331.74 300 357.48 300 384 300 C384 290.1 384 280.2 384 270 C380.04 270 376.08 270 372 270 C372 271.98 372 273.96 372 276 C366.06 276 360.12 276 354 276 C354 274.02 354 272.04 354 270 C350.04 270 346.08 270 342 270 C342 266.04 342 262.08 342 258 C343.98 258 345.96 258 348 258 C348 259.98 348 261.96 348 264 C351.96 264 355.92 264 360 264 C360 265.98 360 267.96 360 270 C361.98 270 363.96 270 366 270 C366 268.02 366 266.04 366 264 C369.96 264 373.92 264 378 264 C378 262.02 378 260.04 378 258 C379.98 258 381.96 258 384 258 C384 242.16 384 226.32 384 210 C382.02 210 380.04 210 378 210 C378 206.04 378 202.08 378 198 C379.98 198 381.96 198 384 198 C384 196.02 384 194.04 384 192 C385.98 192 387.96 192 390 192 C390 190.02 390 188.04 390 186 C391.98 186 393.96 186 396 186 C396 182.04 396 178.08 396 174 C397.98 174 399.96 174 402 174 C402 172.02 402 170.04 402 168 C403.98 168 405.96 168 408 168 C408 164.04 408 160.08 408 156 C409.98 156 411.96 156 414 156 C414 154.02 414 152.04 414 150 C415.98 150 417.96 150 420 150 C420 148.02 420 146.04 420 144 C421.98 144 423.96 144 426 144 C426 140.04 426 136.08 426 132 C427.98 132 429.96 132 432 132 C432 130.02 432 128.04 432 126 C455.76 126 479.52 126 504 126 C504 118.08 504 110.16 504 102 C513.9 102 523.8 102 534 102 C534 109.92 534 117.84 534 126 C541.92 126 549.84 126 558 126 C558 116.1 558 106.2 558 96 C559.98 96 561.96 96 564 96 C564 94.02 564 92.04 564 90 C567.96 90 571.92 90 576 90 C576 88.02 576 86.04 576 84 C579.96 84 583.92 84 588 84 C588 82.02 588 80.04 588 78 C589.98 78 591.96 78 594 78 C594 76.02 594 74.04 594 72 C597.96 72 601.92 72 606 72 C606 70.02 606 68.04 606 66 C609.96 66 613.92 66 618 66 C618 64.02 618 62.04 618 60 C621.96 60 625.92 60 630 60 C630 58.02 630 56.04 630 54 C631.98 54 633.96 54 636 54 C636 52.02 636 50.04 636 48 C639.96 48 643.92 48 648 48 C648 46.02 648 44.04 648 42 C651.96 42 655.92 42 660 42 C660 40.02 660 38.04 660 36 C663.96 36 667.92 36 672 36 C672 34.02 672 32.04 672 30 C673.98 30 675.96 30 678 30 C678 28.02 678 26.04 678 24 C681.96 24 685.92 24 690 24 C690 22.02 690 20.04 690 18 C693.96 18 697.92 18 702 18 C702 16.02 702 14.04 702 12 C705.96 12 709.92 12 714 12 C714 10.02 714 8.04 714 6 C715.98 6 717.96 6 720 6 C720 4.02 720 2.04 720 0 C721.98 0 723.96 0 726 0 C726 253.44 726 506.88 726 768 C486.42 768 246.84 768 0 768 C0 514.56 0 261.12 0 0 Z M510 108 C510 113.94 510 119.88 510 126 C513.96 126 517.92 126 522 126 C522 120.06 522 114.12 522 108 C518.04 108 514.08 108 510 108 Z M174 114 C174 115.98 174 117.96 174 120 C172.02 120 170.04 120 168 120 C168 141.78 168 163.56 168 186 C173.94 186 179.88 186 186 186 C186 184.02 186 182.04 186 180 C187.98 180 189.96 180 192 180 C192 176.04 192 172.08 192 168 C193.98 168 195.96 168 198 168 C198 166.02 198 164.04 198 162 C201.96 162 205.92 162 210 162 C210 156.06 210 150.12 210 144 C208.02 144 206.04 144 204 144 C204 142.02 204 140.04 204 138 C202.02 138 200.04 138 198 138 C198 136.02 198 134.04 198 132 C196.02 132 194.04 132 192 132 C192 130.02 192 128.04 192 126 C190.02 126 188.04 126 186 126 C186 124.02 186 122.04 186 120 C184.02 120 182.04 120 180 120 C180 118.02 180 116.04 180 114 C178.02 114 176.04 114 174 114 Z M450 132 C450 135.96 450 139.92 450 144 C451.98 144 453.96 144 456 144 C456 145.98 456 147.96 456 150 C457.98 150 459.96 150 462 150 C462 153.96 462 157.92 462 162 C463.98 162 465.96 162 468 162 C468 165.96 468 169.92 468 174 C469.98 174 471.96 174 474 174 C474 175.98 474 177.96 474 180 C475.98 180 477.96 180 480 180 C480 183.96 480 187.92 480 192 C481.98 192 483.96 192 486 192 C486 193.98 486 195.96 486 198 C509.76 198 533.52 198 558 198 C558 176.22 558 154.44 558 132 C522.36 132 486.72 132 450 132 Z M432 138 C432 139.98 432 141.96 432 144 C430.02 144 428.04 144 426 144 C426 147.96 426 151.92 426 156 C424.02 156 422.04 156 420 156 C420 157.98 420 159.96 420 162 C418.02 162 416.04 162 414 162 C414 165.96 414 169.92 414 174 C412.02 174 410.04 174 408 174 C408 175.98 408 177.96 408 180 C406.02 180 404.04 180 402 180 C402 183.96 402 187.92 402 192 C400.02 192 398.04 192 396 192 C396 193.98 396 195.96 396 198 C421.74 198 447.48 198 474 198 C474 194.04 474 190.08 474 186 C472.02 186 470.04 186 468 186 C468 182.04 468 178.08 468 174 C466.02 174 464.04 174 462 174 C462 172.02 462 170.04 462 168 C460.02 168 458.04 168 456 168 C456 164.04 456 160.08 456 156 C454.02 156 452.04 156 450 156 C450 154.02 450 152.04 450 150 C448.02 150 446.04 150 444 150 C444 146.04 444 142.08 444 138 C440.04 138 436.08 138 432 138 Z M270 144 C270 145.98 270 147.96 270 150 C268.02 150 266.04 150 264 150 C264 151.98 264 153.96 264 156 C262.02 156 260.04 156 258 156 C258 161.94 258 167.88 258 174 C256.02 174 254.04 174 252 174 C252 175.98 252 177.96 252 180 C253.98 180 255.96 180 258 180 C258 185.94 258 191.88 258 198 C259.98 198 261.96 198 264 198 C264 199.98 264 201.96 264 204 C265.98 204 267.96 204 270 204 C270 205.98 270 207.96 270 210 C273.96 210 277.92 210 282 210 C282 211.98 282 213.96 282 216 C287.94 216 293.88 216 300 216 C300 214.02 300 212.04 300 210 C303.96 210 307.92 210 312 210 C312 208.02 312 206.04 312 204 C313.98 204 315.96 204 318 204 C318 202.02 318 200.04 318 198 C319.98 198 321.96 198 324 198 C324 194.04 324 190.08 324 186 C325.98 186 327.96 186 330 186 C330 182.04 330 178.08 330 174 C328.02 174 326.04 174 324 174 C324 168.06 324 162.12 324 156 C322.02 156 320.04 156 318 156 C318 154.02 318 152.04 318 150 C316.02 150 314.04 150 312 150 C312 148.02 312 146.04 312 144 C298.14 144 284.28 144 270 144 Z M390 204 C390 235.68 390 267.36 390 300 C399.9 300 409.8 300 420 300 C420 288.12 420 276.24 420 264 C429.9 264 439.8 264 450 264 C450 275.88 450 287.76 450 300 C459.9 300 469.8 300 480 300 C480 268.32 480 236.64 480 204 C450.3 204 420.6 204 390 204 Z M492 204 C492 235.68 492 267.36 492 300 C513.78 300 535.56 300 558 300 C558 294.06 558 288.12 558 282 C542.16 282 526.32 282 510 282 C510 264.18 510 246.36 510 228 C525.84 228 541.68 228 558 228 C558 220.08 558 212.16 558 204 C536.22 204 514.44 204 492 204 Z M288 222 C288 247.74 288 273.48 288 300 C289.98 300 291.96 300 294 300 C294 274.26 294 248.52 294 222 C292.02 222 290.04 222 288 222 Z M522 234 C522 239.94 522 245.88 522 252 C527.94 252 533.88 252 540 252 C540 246.06 540 240.12 540 234 C534.06 234 528.12 234 522 234 Z M546 234 C546 239.94 546 245.88 546 252 C549.96 252 553.92 252 558 252 C558 246.06 558 240.12 558 234 C554.04 234 550.08 234 546 234 Z M168 258 C168 265.92 168 273.84 168 282 C171.96 282 175.92 282 180 282 C180 276.06 180 270.12 180 264 C178.02 264 176.04 264 174 264 C174 262.02 174 260.04 174 258 C172.02 258 170.04 258 168 258 Z M522 258 C522 263.94 522 269.88 522 276 C527.94 276 533.88 276 540 276 C540 272.04 540 268.08 540 264 C538.02 264 536.04 264 534 264 C534 262.02 534 260.04 534 258 C530.04 258 526.08 258 522 258 Z M546 258 C546 263.94 546 269.88 546 276 C549.96 276 553.92 276 558 276 C558 270.06 558 264.12 558 258 C554.04 258 550.08 258 546 258 Z M216 264 C216 275.88 216 287.76 216 300 C217.98 300 219.96 300 222 300 C222 288.12 222 276.24 222 264 C220.02 264 218.04 264 216 264 Z M432 270 C432 271.98 432 273.96 432 276 C430.02 276 428.04 276 426 276 C426 283.92 426 291.84 426 300 C431.94 300 437.88 300 444 300 C444 292.08 444 284.16 444 276 C442.02 276 440.04 276 438 276 C438 274.02 438 272.04 438 270 C436.02 270 434.04 270 432 270 Z M168 312 C168 319.92 168 327.84 168 336 C296.7 336 425.4 336 558 336 C558 328.08 558 320.16 558 312 C429.3 312 300.6 312 168 312 Z M168 348 C168 353.94 168 359.88 168 366 C169.98 366 171.96 366 174 366 C174 367.98 174 369.96 174 372 C195.78 372 217.56 372 240 372 C240 370.02 240 368.04 240 366 C241.98 366 243.96 366 246 366 C246 367.98 246 369.96 246 372 C259.86 372 273.72 372 288 372 C288 370.02 288 368.04 288 366 C289.98 366 291.96 366 294 366 C294 367.98 294 369.96 294 372 C295.98 372 297.96 372 300 372 C300 370.02 300 368.04 300 366 C301.98 366 303.96 366 306 366 C306 364.02 306 362.04 306 360 C307.98 360 309.96 360 312 360 C312 358.02 312 356.04 312 354 C313.98 354 315.96 354 318 354 C318 352.02 318 350.04 318 348 C268.5 348 219 348 168 348 Z M396 348 C396 349.98 396 351.96 396 354 C403.92 354 411.84 354 420 354 C420 355.98 420 357.96 420 360 C421.98 360 423.96 360 426 360 C426 361.98 426 363.96 426 366 C427.98 366 429.96 366 432 366 C432 367.98 432 369.96 432 372 C473.58 372 515.16 372 558 372 C558 364.08 558 356.16 558 348 C504.54 348 451.08 348 396 348 Z M174 378 C174 379.98 174 381.96 174 384 C172.02 384 170.04 384 168 384 C168 403.8 168 423.6 168 444 C171.96 444 175.92 444 180 444 C180 442.02 180 440.04 180 438 C181.98 438 183.96 438 186 438 C186 436.02 186 434.04 186 432 C187.98 432 189.96 432 192 432 C192 428.04 192 424.08 192 420 C193.98 420 195.96 420 198 420 C198 418.02 198 416.04 198 414 C199.98 414 201.96 414 204 414 C204 410.04 204 406.08 204 402 C205.98 402 207.96 402 210 402 C210 400.02 210 398.04 210 396 C211.98 396 213.96 396 216 396 C216 392.04 216 388.08 216 384 C217.98 384 219.96 384 222 384 C222 382.02 222 380.04 222 378 C206.16 378 190.32 378 174 378 Z M240 378 C240 379.98 240 381.96 240 384 C241.98 384 243.96 384 246 384 C246 387.96 246 391.92 246 396 C247.98 396 249.96 396 252 396 C252 397.98 252 399.96 252 402 C253.98 402 255.96 402 258 402 C258 403.98 258 405.96 258 408 C259.98 408 261.96 408 264 408 C264 411.96 264 415.92 264 420 C265.98 420 267.96 420 270 420 C270 421.98 270 423.96 270 426 C271.98 426 273.96 426 276 426 C276 429.96 276 433.92 276 438 C277.98 438 279.96 438 282 438 C282 439.98 282 441.96 282 444 C283.98 444 285.96 444 288 444 C288 442.02 288 440.04 288 438 C289.98 438 291.96 438 294 438 C294 420.18 294 402.36 294 384 C295.98 384 297.96 384 300 384 C300 382.02 300 380.04 300 378 C280.2 378 260.4 378 240 378 Z M438 378 C438 383.94 438 389.88 438 396 C439.98 396 441.96 396 444 396 C444 407.88 444 419.76 444 432 C442.02 432 440.04 432 438 432 C438 435.96 438 439.92 438 444 C439.98 444 441.96 444 444 444 C444 445.98 444 447.96 444 450 C449.94 450 455.88 450 462 450 C462 451.98 462 453.96 462 456 C463.98 456 465.96 456 468 456 C468 457.98 468 459.96 468 462 C469.98 462 471.96 462 474 462 C474 465.96 474 469.92 474 474 C475.98 474 477.96 474 480 474 C480 475.98 480 477.96 480 480 C478.02 480 476.04 480 474 480 C474 483.96 474 487.92 474 492 C472.02 492 470.04 492 468 492 C468 484.08 468 476.16 468 468 C466.02 468 464.04 468 462 468 C462 466.02 462 464.04 462 462 C460.02 462 458.04 462 456 462 C456 460.02 456 458.04 456 456 C452.04 456 448.08 456 444 456 C444 459.96 444 463.92 444 468 C442.02 468 440.04 468 438 468 C438 473.94 438 479.88 438 486 C436.02 486 434.04 486 432 486 C432 489.96 432 493.92 432 498 C441.9 498 451.8 498 462 498 C462 499.98 462 501.96 462 504 C460.02 504 458.04 504 456 504 C456 517.86 456 531.72 456 546 C457.98 546 459.96 546 462 546 C462 547.98 462 549.96 462 552 C463.98 552 465.96 552 468 552 C468 550.02 468 548.04 468 546 C479.88 546 491.76 546 504 546 C504 520.26 504 494.52 504 468 C500.04 468 496.08 468 492 468 C492 466.02 492 464.04 492 462 C488.04 462 484.08 462 480 462 C480 460.02 480 458.04 480 456 C478.02 456 476.04 456 474 456 C474 452.04 474 448.08 474 444 C472.02 444 470.04 444 468 444 C468 432.12 468 420.24 468 408 C469.98 408 471.96 408 474 408 C474 404.04 474 400.08 474 396 C475.98 396 477.96 396 480 396 C480 394.02 480 392.04 480 390 C483.96 390 487.92 390 492 390 C492 388.02 492 386.04 492 384 C505.86 384 519.72 384 534 384 C534 385.98 534 387.96 534 390 C535.98 390 537.96 390 540 390 C540 391.98 540 393.96 540 396 C541.98 396 543.96 396 546 396 C546 397.98 546 399.96 546 402 C547.98 402 549.96 402 552 402 C552 405.96 552 409.92 552 414 C553.98 414 555.96 414 558 414 C558 402.12 558 390.24 558 378 C518.4 378 478.8 378 438 378 Z M228 384 C228 385.98 228 387.96 228 390 C226.02 390 224.04 390 222 390 C222 393.96 222 397.92 222 402 C220.02 402 218.04 402 216 402 C216 403.98 216 405.96 216 408 C214.02 408 212.04 408 210 408 C210 411.96 210 415.92 210 420 C208.02 420 206.04 420 204 420 C204 421.98 204 423.96 204 426 C202.02 426 200.04 426 198 426 C198 429.96 198 433.92 198 438 C196.02 438 194.04 438 192 438 C192 439.98 192 441.96 192 444 C217.74 444 243.48 444 270 444 C270 440.04 270 436.08 270 432 C268.02 432 266.04 432 264 432 C264 430.02 264 428.04 264 426 C262.02 426 260.04 426 258 426 C258 422.04 258 418.08 258 414 C256.02 414 254.04 414 252 414 C252 412.02 252 410.04 252 408 C250.02 408 248.04 408 246 408 C246 404.04 246 400.08 246 396 C244.02 396 242.04 396 240 396 C240 394.02 240 392.04 240 390 C238.02 390 236.04 390 234 390 C234 388.02 234 386.04 234 384 C232.02 384 230.04 384 228 384 Z M492 390 C492 391.98 492 393.96 492 396 C490.02 396 488.04 396 486 396 C486 397.98 486 399.96 486 402 C484.02 402 482.04 402 480 402 C480 405.96 480 409.92 480 414 C478.02 414 476.04 414 474 414 C474 421.92 474 429.84 474 438 C475.98 438 477.96 438 480 438 C480 441.96 480 445.92 480 450 C481.98 450 483.96 450 486 450 C486 451.98 486 453.96 486 456 C489.96 456 493.92 456 498 456 C498 457.98 498 459.96 498 462 C507.9 462 517.8 462 528 462 C528 460.02 528 458.04 528 456 C529.98 456 531.96 456 534 456 C534 454.02 534 452.04 534 450 C535.98 450 537.96 450 540 450 C540 448.02 540 446.04 540 444 C541.98 444 543.96 444 546 444 C546 432.12 546 420.24 546 408 C544.02 408 542.04 408 540 408 C540 406.02 540 404.04 540 402 C538.02 402 536.04 402 534 402 C534 400.02 534 398.04 534 396 C532.02 396 530.04 396 528 396 C528 394.02 528 392.04 528 390 C516.12 390 504.24 390 492 390 Z M552 432 C552 437.94 552 443.88 552 450 C550.02 450 548.04 450 546 450 C546 451.98 546 453.96 546 456 C544.02 456 542.04 456 540 456 C540 457.98 540 459.96 540 462 C538.02 462 536.04 462 534 462 C534 463.98 534 465.96 534 468 C530.04 468 526.08 468 522 468 C522 493.74 522 519.48 522 546 C523.98 546 525.96 546 528 546 C528 547.98 528 549.96 528 552 C529.98 552 531.96 552 534 552 C534 550.02 534 548.04 534 546 C541.92 546 549.84 546 558 546 C558 508.38 558 470.76 558 432 C556.02 432 554.04 432 552 432 Z M174 450 C174 451.98 174 453.96 174 456 C172.02 456 170.04 456 168 456 C168 485.7 168 515.4 168 546 C171.96 546 175.92 546 180 546 C180 514.32 180 482.64 180 450 C178.02 450 176.04 450 174 450 Z M186 450 C186 481.68 186 513.36 186 546 C195.9 546 205.8 546 216 546 C216 536.1 216 526.2 216 516 C217.98 516 219.96 516 222 516 C222 514.02 222 512.04 222 510 C229.92 510 237.84 510 246 510 C246 521.88 246 533.76 246 546 C253.92 546 261.84 546 270 546 C270 547.98 270 549.96 270 552 C271.98 552 273.96 552 276 552 C276 518.34 276 484.68 276 450 C246.3 450 216.6 450 186 450 Z M288 450 C288 469.8 288 489.6 288 510 C291.96 510 295.92 510 300 510 C300 511.98 300 513.96 300 516 C303.96 516 307.92 516 312 516 C312 510.06 312 504.12 312 498 C310.02 498 308.04 498 306 498 C306 496.02 306 494.04 306 492 C304.02 492 302.04 492 300 492 C300 488.04 300 484.08 300 480 C298.02 480 296.04 480 294 480 C294 470.1 294 460.2 294 450 C292.02 450 290.04 450 288 450 Z M510 468 C510 493.74 510 519.48 510 546 C511.98 546 513.96 546 516 546 C516 520.26 516 494.52 516 468 C514.02 468 512.04 468 510 468 Z M426 498 C426 499.98 426 501.96 426 504 C424.02 504 422.04 504 420 504 C420 507.96 420 511.92 420 516 C418.02 516 416.04 516 414 516 C414 519.96 414 523.92 414 528 C412.02 528 410.04 528 408 528 C408 531.96 408 535.92 408 540 C406.02 540 404.04 540 402 540 C402 541.98 402 543.96 402 546 C403.98 546 405.96 546 408 546 C408 547.98 408 549.96 408 552 C409.98 552 411.96 552 414 552 C414 550.02 414 548.04 414 546 C421.92 546 429.84 546 438 546 C438 532.14 438 518.28 438 504 C436.02 504 434.04 504 432 504 C432 502.02 432 500.04 432 498 C430.02 498 428.04 498 426 498 Z M444 510 C444 521.88 444 533.76 444 546 C445.98 546 447.96 546 450 546 C450 534.12 450 522.24 450 510 C448.02 510 446.04 510 444 510 Z M288 516 C288 527.88 288 539.76 288 552 C289.98 552 291.96 552 294 552 C294 550.02 294 548.04 294 546 C301.92 546 309.84 546 318 546 C318 547.98 318 549.96 318 552 C319.98 552 321.96 552 324 552 C324 550.02 324 548.04 324 546 C325.98 546 327.96 546 330 546 C330 542.04 330 538.08 330 534 C328.02 534 326.04 534 324 534 C324 530.04 324 526.08 324 522 C314.1 522 304.2 522 294 522 C294 520.02 294 518.04 294 516 C292.02 516 290.04 516 288 516 Z M222 522 C222 529.92 222 537.84 222 546 C223.98 546 225.96 546 228 546 C228 547.98 228 549.96 228 552 C229.98 552 231.96 552 234 552 C234 550.02 234 548.04 234 546 C235.98 546 237.96 546 240 546 C240 538.08 240 530.16 240 522 C234.06 522 228.12 522 222 522 Z M168 558 C168 565.92 168 573.84 168 582 C169.98 582 171.96 582 174 582 C174 583.98 174 585.96 174 588 C199.74 588 225.48 588 252 588 C252 586.02 252 584.04 252 582 C255.96 582 259.92 582 264 582 C264 580.02 264 578.04 264 576 C265.98 576 267.96 576 270 576 C270 574.02 270 572.04 270 570 C275.94 570 281.88 570 288 570 C288 568.02 288 566.04 288 564 C295.92 564 303.84 564 312 564 C312 562.02 312 560.04 312 558 C264.48 558 216.96 558 168 558 Z M420 558 C420 559.98 420 561.96 420 564 C427.92 564 435.84 564 444 564 C444 565.98 444 567.96 444 570 C447.96 570 451.92 570 456 570 C456 571.98 456 573.96 456 576 C459.96 576 463.92 576 468 576 C468 577.98 468 579.96 468 582 C471.96 582 475.92 582 480 582 C480 583.98 480 585.96 480 588 C505.74 588 531.48 588 558 588 C558 578.1 558 568.2 558 558 C512.46 558 466.92 558 420 558 Z M168 594 C168 599.94 168 605.88 168 612 C169.98 612 171.96 612 174 612 C174 613.98 174 615.96 174 618 C189.84 618 205.68 618 222 618 C222 616.02 222 614.04 222 612 C223.98 612 225.96 612 228 612 C228 610.02 228 608.04 228 606 C229.98 606 231.96 606 234 606 C234 604.02 234 602.04 234 600 C235.98 600 237.96 600 240 600 C240 598.02 240 596.04 240 594 C216.24 594 192.48 594 168 594 Z M492 594 C492 595.98 492 597.96 492 600 C493.98 600 495.96 600 498 600 C498 601.98 498 603.96 498 606 C499.98 606 501.96 606 504 606 C504 607.98 504 609.96 504 612 C505.98 612 507.96 612 510 612 C510 613.98 510 615.96 510 618 C525.84 618 541.68 618 558 618 C558 610.08 558 602.16 558 594 C536.22 594 514.44 594 492 594 Z M168 624 C168 625.98 168 627.96 168 630 C169.98 630 171.96 630 174 630 C174 631.98 174 633.96 174 636 C179.94 636 185.88 636 192 636 C192 634.02 192 632.04 192 630 C195.96 630 199.92 630 204 630 C204 628.02 204 626.04 204 624 C192.12 624 180.24 624 168 624 Z M534 624 C534 625.98 534 627.96 534 630 C535.98 630 537.96 630 540 630 C540 631.98 540 633.96 540 636 C543.96 636 547.92 636 552 636 C552 637.98 552 639.96 552 642 C553.98 642 555.96 642 558 642 C558 636.06 558 630.12 558 624 C550.08 624 542.16 624 534 624 Z M264 672 C264 673.98 264 675.96 264 678 C260.04 678 256.08 678 252 678 C252 679.98 252 681.96 252 684 C248.04 684 244.08 684 240 684 C240 685.98 240 687.96 240 690 C236.04 690 232.08 690 228 690 C228 691.98 228 693.96 228 696 C229.98 696 231.96 696 234 696 C234 697.98 234 699.96 234 702 C235.98 702 237.96 702 240 702 C240 703.98 240 705.96 240 708 C241.98 708 243.96 708 246 708 C246 709.98 246 711.96 246 714 C249.96 714 253.92 714 258 714 C258 712.02 258 710.04 258 708 C261.96 708 265.92 708 270 708 C270 696.12 270 684.24 270 672 C268.02 672 266.04 672 264 672 Z M474 684 C474 689.94 474 695.88 474 702 C475.98 702 477.96 702 480 702 C480 705.96 480 709.92 480 714 C483.96 714 487.92 714 492 714 C492 715.98 492 717.96 492 720 C495.96 720 499.92 720 504 720 C504 721.98 504 723.96 504 726 C509.94 726 515.88 726 522 726 C522 724.02 522 722.04 522 720 C525.96 720 529.92 720 534 720 C534 721.98 534 723.96 534 726 C532.02 726 530.04 726 528 726 C528 727.98 528 729.96 528 732 C526.02 732 524.04 732 522 732 C522 741.9 522 751.8 522 762 C533.88 762 545.76 762 558 762 C558 754.08 558 746.16 558 738 C556.02 738 554.04 738 552 738 C552 730.08 552 722.16 552 714 C548.04 714 544.08 714 540 714 C540 712.02 540 710.04 540 708 C536.04 708 532.08 708 528 708 C528 706.02 528 704.04 528 702 C524.04 702 520.08 702 516 702 C516 700.02 516 698.04 516 696 C512.04 696 508.08 696 504 696 C504 694.02 504 692.04 504 690 C500.04 690 496.08 690 492 690 C492 688.02 492 686.04 492 684 C486.06 684 480.12 684 474 684 Z M216 696 C216 697.98 216 699.96 216 702 C217.98 702 219.96 702 222 702 C222 700.02 222 698.04 222 696 C220.02 696 218.04 696 216 696 Z M222 702 C222 703.98 222 705.96 222 708 C223.98 708 225.96 708 228 708 C228 706.02 228 704.04 228 702 C226.02 702 224.04 702 222 702 Z M192 708 C192 709.98 192 711.96 192 714 C188.04 714 184.08 714 180 714 C180 715.98 180 717.96 180 720 C178.02 720 176.04 720 174 720 C174 725.94 174 731.88 174 738 C172.02 738 170.04 738 168 738 C168 741.96 168 745.92 168 750 C169.98 750 171.96 750 174 750 C174 751.98 174 753.96 174 756 C181.92 756 189.84 756 198 756 C198 752.04 198 748.08 198 744 C199.98 744 201.96 744 204 744 C204 742.02 204 740.04 204 738 C205.98 738 207.96 738 210 738 C210 736.02 210 734.04 210 732 C211.98 732 213.96 732 216 732 C216 730.02 216 728.04 216 726 C217.98 726 219.96 726 222 726 C222 722.04 222 718.08 222 714 C220.02 714 218.04 714 216 714 C216 712.02 216 710.04 216 708 C208.08 708 200.16 708 192 708 Z M228 708 C228 715.92 228 723.84 228 732 C226.02 732 224.04 732 222 732 C222 733.98 222 735.96 222 738 C220.02 738 218.04 738 216 738 C216 739.98 216 741.96 216 744 C214.02 744 212.04 744 210 744 C210 745.98 210 747.96 210 750 C208.02 750 206.04 750 204 750 C204 753.96 204 757.92 204 762 C215.88 762 227.76 762 240 762 C240 746.16 240 730.32 240 714 C238.02 714 236.04 714 234 714 C234 712.02 234 710.04 234 708 C232.02 708 230.04 708 228 708 Z M264 714 C264 729.84 264 745.68 264 762 C265.98 762 267.96 762 270 762 C270 746.16 270 730.32 270 714 C268.02 714 266.04 714 264 714 Z M246 720 C246 731.88 246 743.76 246 756 C249.96 756 253.92 756 258 756 C258 744.12 258 732.24 258 720 C254.04 720 250.08 720 246 720 Z M474 720 C474 731.88 474 743.76 474 756 C475.98 756 477.96 756 480 756 C480 757.98 480 759.96 480 762 C487.92 762 495.84 762 504 762 C504 752.1 504 742.2 504 732 C502.02 732 500.04 732 498 732 C498 730.02 498 728.04 498 726 C494.04 726 490.08 726 486 726 C486 724.02 486 722.04 486 720 C482.04 720 478.08 720 474 720 Z M510 732 C510 739.92 510 747.84 510 756 C511.98 756 513.96 756 516 756 C516 748.08 516 740.16 516 732 C514.02 732 512.04 732 510 732 Z " fill="#000000" transform="translate(0,0)"/>
<path d="M0 0 C5.94 0 11.88 0 18 0 C18 1.98 18 3.96 18 6 C19.98 6 21.96 6 24 6 C24 11.94 24 17.88 24 24 C22.02 24 20.04 24 18 24 C18 25.98 18 27.96 18 30 C12.06 30 6.12 30 0 30 C0 28.02 0 26.04 0 24 C-1.98 24 -3.96 24 -6 24 C-6 18.06 -6 12.12 -6 6 C-4.02 6 -2.04 6 0 6 C0 4.02 0 2.04 0 0 Z M0 6 C0 9.96 0 13.92 0 18 C1.98 18 3.96 18 6 18 C6 19.98 6 21.96 6 24 C7.98 24 9.96 24 12 24 C12 22.02 12 20.04 12 18 C13.98 18 15.96 18 18 18 C18 16.02 18 14.04 18 12 C16.02 12 14.04 12 12 12 C12 10.02 12 8.04 12 6 C8.04 6 4.08 6 0 6 Z " fill="#000000" transform="translate(354,138)"/>
<path d="M0 0 C5.94 0 11.88 0 18 0 C18 1.98 18 3.96 18 6 C19.98 6 21.96 6 24 6 C24 7.98 24 9.96 24 12 C14.1 12 4.2 12 -6 12 C-6 15.96 -6 19.92 -6 24 C-7.98 24 -9.96 24 -12 24 C-12 25.98 -12 27.96 -12 30 C-13.98 30 -15.96 30 -18 30 C-18 31.98 -18 33.96 -18 36 C-19.98 36 -21.96 36 -24 36 C-24 37.98 -24 39.96 -24 42 C-25.98 42 -27.96 42 -30 42 C-30 45.96 -30 49.92 -30 54 C-28.02 54 -26.04 54 -24 54 C-24 55.98 -24 57.96 -24 60 C-20.04 60 -16.08 60 -12 60 C-12 63.96 -12 67.92 -12 72 C-13.98 72 -15.96 72 -18 72 C-18 70.02 -18 68.04 -18 66 C-21.96 66 -25.92 66 -30 66 C-30 64.02 -30 62.04 -30 60 C-31.98 60 -33.96 60 -36 60 C-36 52.08 -36 44.16 -36 36 C-34.02 36 -32.04 36 -30 36 C-30 34.02 -30 32.04 -30 30 C-28.02 30 -26.04 30 -24 30 C-24 28.02 -24 26.04 -24 24 C-22.02 24 -20.04 24 -18 24 C-18 22.02 -18 20.04 -18 18 C-16.02 18 -14.04 18 -12 18 C-12 14.04 -12 10.08 -12 6 C-8.04 6 -4.08 6 0 6 C0 4.02 0 2.04 0 0 Z " fill="#000000" transform="translate(354,186)"/>
<path d="M0 0 C5.94 0 11.88 0 18 0 C18 1.98 18 3.96 18 6 C19.98 6 21.96 6 24 6 C24 7.98 24 9.96 24 12 C14.1 12 4.2 12 -6 12 C-6 13.98 -6 15.96 -6 18 C-7.98 18 -9.96 18 -12 18 C-12 27.9 -12 37.8 -12 48 C-13.98 48 -15.96 48 -18 48 C-18 44.04 -18 40.08 -18 36 C-19.98 36 -21.96 36 -24 36 C-24 32.04 -24 28.08 -24 24 C-22.02 24 -20.04 24 -18 24 C-18 20.04 -18 16.08 -18 12 C-16.02 12 -14.04 12 -12 12 C-12 10.02 -12 8.04 -12 6 C-8.04 6 -4.08 6 0 6 C0 4.02 0 2.04 0 0 Z " fill="#000000" transform="translate(210,198)"/>
<path d="M0 0 C7.92 0 15.84 0 24 0 C24 5.94 24 11.88 24 18 C22.02 18 20.04 18 18 18 C18 19.98 18 21.96 18 24 C14.04 24 10.08 24 6 24 C6 22.02 6 20.04 6 18 C4.02 18 2.04 18 0 18 C0 12.06 0 6.12 0 0 Z M6 6 C6 7.98 6 9.96 6 12 C9.96 12 13.92 12 18 12 C18 10.02 18 8.04 18 6 C14.04 6 10.08 6 6 6 Z " fill="#000000" transform="translate(396,222)"/>
<path d="M0 0 C7.92 0 15.84 0 24 0 C24 5.94 24 11.88 24 18 C22.02 18 20.04 18 18 18 C18 19.98 18 21.96 18 24 C14.04 24 10.08 24 6 24 C6 22.02 6 20.04 6 18 C4.02 18 2.04 18 0 18 C0 12.06 0 6.12 0 0 Z M12 6 C12 7.98 12 9.96 12 12 C13.98 12 15.96 12 18 12 C18 10.02 18 8.04 18 6 C16.02 6 14.04 6 12 6 Z " fill="#000000" transform="translate(450,222)"/>
<path d="M0 0 C5.94 0 11.88 0 18 0 C18 1.98 18 3.96 18 6 C19.98 6 21.96 6 24 6 C24 7.98 24 9.96 24 12 C22.02 12 20.04 12 18 12 C18 13.98 18 15.96 18 18 C16.02 18 14.04 18 12 18 C12 19.98 12 21.96 12 24 C8.04 24 4.08 24 0 24 C0 22.02 0 20.04 0 18 C-1.98 18 -3.96 18 -6 18 C-6 14.04 -6 10.08 -6 6 C-4.02 6 -2.04 6 0 6 C0 4.02 0 2.04 0 0 Z M6 6 C6 7.98 6 9.96 6 12 C7.98 12 9.96 12 12 12 C12 10.02 12 8.04 12 6 C10.02 6 8.04 6 6 6 Z " fill="#000000" transform="translate(318,270)"/>
<path d="M0 0 C7.92 0 15.84 0 24 0 C24 5.94 24 11.88 24 18 C22.02 18 20.04 18 18 18 C18 19.98 18 21.96 18 24 C14.04 24 10.08 24 6 24 C6 22.02 6 20.04 6 18 C4.02 18 2.04 18 0 18 C0 12.06 0 6.12 0 0 Z M6 6 C6 7.98 6 9.96 6 12 C9.96 12 13.92 12 18 12 C18 10.02 18 8.04 18 6 C14.04 6 10.08 6 6 6 Z " fill="#000000" transform="translate(192,468)"/>
<path d="M0 0 C7.92 0 15.84 0 24 0 C24 5.94 24 11.88 24 18 C22.02 18 20.04 18 18 18 C18 19.98 18 21.96 18 24 C14.04 24 10.08 24 6 24 C6 22.02 6 20.04 6 18 C4.02 18 2.04 18 0 18 C0 12.06 0 6.12 0 0 Z M12 6 C12 7.98 12 9.96 12 12 C13.98 12 15.96 12 18 12 C18 10.02 18 8.04 18 6 C16.02 6 14.04 6 12 6 Z " fill="#000000" transform="translate(246,468)"/>
<path d="M0 0 C1.98 0 3.96 0 6 0 C6 1.98 6 3.96 6 6 C4.02 6 2.04 6 0 6 C0 4.02 0 2.04 0 0 Z " fill="#000000" transform="translate(462,492)"/>
<path d="M0 0 C1.98 0 3.96 0 6 0 C6 1.98 6 3.96 6 6 C4.02 6 2.04 6 0 6 C0 4.02 0 2.04 0 0 Z " fill="#000000" transform="translate(534,714)"/>
</svg>
