<?xml version="1.0" encoding="UTF-8"?>
<!-- Generator: visioncortex VTracer 0.6.12 -->
<svg version="1.1" xmlns="http://www.w3.org/2000/svg" width="1600" height="512">
<path d="M0 0 C1.32 0 2.64 0 4 0 C4 1.32 4 2.64 4 4 C6.64 4 9.28 4 12 4 C12 5.32 12 6.64 12 8 C14.64 8 17.28 8 20 8 C20 9.32 20 10.64 20 12 C21.32 12 22.64 12 24 12 C24 13.32 24 14.64 24 16 C26.64 16 29.28 16 32 16 C32 17.32 32 18.64 32 20 C34.64 20 37.28 20 40 20 C40 21.32 40 22.64 40 24 C42.64 24 45.28 24 48 24 C48 25.32 48 26.64 48 28 C49.32 28 50.64 28 52 28 C52 29.32 52 30.64 52 32 C54.64 32 57.28 32 60 32 C60 33.32 60 34.64 60 36 C62.64 36 65.28 36 68 36 C68 37.32 68 38.64 68 40 C70.64 40 73.28 40 76 40 C76 41.32 76 42.64 76 44 C77.32 44 78.64 44 80 44 C80 45.32 80 46.64 80 48 C82.64 48 85.28 48 88 48 C88 49.32 88 50.64 88 52 C90.64 52 93.28 52 96 52 C96 53.32 96 54.64 96 56 C98.64 56 101.28 56 104 56 C104 57.32 104 58.64 104 60 C105.32 60 106.64 60 108 60 C108 61.32 108 62.64 108 64 C109.32 64 110.64 64 112 64 C112 66.64 112 69.28 112 72 C115.96 72 119.92 72 124 72 C124 73.32 124 74.64 124 76 C125.32 76 126.64 76 128 76 C128 77.32 128 78.64 128 80 C129.32 80 130.64 80 132 80 C132 81.32 132 82.64 132 84 C133.32 84 134.64 84 136 84 C136 85.32 136 86.64 136 88 C137.32 88 138.64 88 140 88 C140 89.32 140 90.64 140 92 C141.32 92 142.64 92 144 92 C144 93.32 144 94.64 144 96 C145.32 96 146.64 96 148 96 C148 98.64 148 101.28 148 104 C146.68 104 145.36 104 144 104 C144 106.64 144 109.28 144 112 C141.36 112 138.72 112 136 112 C136 114.64 136 117.28 136 120 C134.68 120 133.36 120 132 120 C132 121.32 132 122.64 132 124 C130.68 124 129.36 124 128 124 C128 125.32 128 126.64 128 128 C126.68 128 125.36 128 124 128 C124 129.32 124 130.64 124 132 C120.04 132 116.08 132 112 132 C112 142.56 112 153.12 112 164 C113.32 164 114.64 164 116 164 C116 165.32 116 166.64 116 168 C117.32 168 118.64 168 120 168 C120 169.32 120 170.64 120 172 C121.32 172 122.64 172 124 172 C124 174.64 124 177.28 124 180 C125.32 180 126.64 180 128 180 C128 181.32 128 182.64 128 184 C126.68 184 125.36 184 124 184 C124 186.64 124 189.28 124 192 C121.36 192 118.72 192 116 192 C116 193.32 116 194.64 116 196 C114.68 196 113.36 196 112 196 C112 197.32 112 198.64 112 200 C121.24 200 130.48 200 140 200 C140 190.76 140 181.52 140 172 C138.68 172 137.36 172 136 172 C136 170.68 136 169.36 136 168 C134.68 168 133.36 168 132 168 C132 166.68 132 165.36 132 164 C134.64 164 137.28 164 140 164 C140 165.32 140 166.64 140 168 C143.96 168 147.92 168 152 168 C152 166.68 152 165.36 152 164 C153.32 164 154.64 164 156 164 C156 162.68 156 161.36 156 160 C157.32 160 158.64 160 160 160 C160 156.04 160 152.08 160 148 C158.68 148 157.36 148 156 148 C156 145.36 156 142.72 156 140 C157.32 140 158.64 140 160 140 C160 141.32 160 142.64 160 144 C161.32 144 162.64 144 164 144 C164 150.6 164 157.2 164 164 C162.68 164 161.36 164 160 164 C160 165.32 160 166.64 160 168 C158.68 168 157.36 168 156 168 C156 169.32 156 170.64 156 172 C154.68 172 153.36 172 152 172 C152 181.24 152 190.48 152 200 C163.88 200 175.76 200 188 200 C188 182.84 188 165.68 188 148 C186.68 148 185.36 148 184 148 C184 146.68 184 145.36 184 144 C181.36 144 178.72 144 176 144 C176 142.68 176 141.36 176 140 C174.68 140 173.36 140 172 140 C172 138.68 172 137.36 172 136 C170.68 136 169.36 136 168 136 C168 133.36 168 130.72 168 128 C166.68 128 165.36 128 164 128 C164 121.4 164 114.8 164 108 C165.32 108 166.64 108 168 108 C168 105.36 168 102.72 168 100 C169.32 100 170.64 100 172 100 C172 98.68 172 97.36 172 96 C173.32 96 174.64 96 176 96 C176 94.68 176 93.36 176 92 C178.64 92 181.28 92 184 92 C184 90.68 184 89.36 184 88 C190.6 88 197.2 88 204 88 C204 89.32 204 90.64 204 92 C206.64 92 209.28 92 212 92 C212 93.32 212 94.64 212 96 C213.32 96 214.64 96 216 96 C216 97.32 216 98.64 216 100 C217.32 100 218.64 100 220 100 C220 102.64 220 105.28 220 108 C221.32 108 222.64 108 224 108 C224 114.6 224 121.2 224 128 C222.68 128 221.36 128 220 128 C220 130.64 220 133.28 220 136 C218.68 136 217.36 136 216 136 C216 137.32 216 138.64 216 140 C214.68 140 213.36 140 212 140 C212 141.32 212 142.64 212 144 C209.36 144 206.72 144 204 144 C204 162.48 204 180.96 204 200 C221.16 200 238.32 200 256 200 C256 193.4 256 186.8 256 180 C253.36 180 250.72 180 248 180 C248 181.32 248 182.64 248 184 C244.04 184 240.08 184 236 184 C236 182.68 236 181.36 236 180 C233.36 180 230.72 180 228 180 C228 177.36 228 174.72 228 172 C229.32 172 230.64 172 232 172 C232 173.32 232 174.64 232 176 C234.64 176 237.28 176 240 176 C240 177.32 240 178.64 240 180 C241.32 180 242.64 180 244 180 C244 178.68 244 177.36 244 176 C246.64 176 249.28 176 252 176 C252 174.68 252 173.36 252 172 C253.32 172 254.64 172 256 172 C256 161.44 256 150.88 256 140 C254.68 140 253.36 140 252 140 C252 137.36 252 134.72 252 132 C253.32 132 254.64 132 256 132 C256 130.68 256 129.36 256 128 C257.32 128 258.64 128 260 128 C260 126.68 260 125.36 260 124 C261.32 124 262.64 124 264 124 C264 121.36 264 118.72 264 116 C265.32 116 266.64 116 268 116 C268 114.68 268 113.36 268 112 C269.32 112 270.64 112 272 112 C272 109.36 272 106.72 272 104 C273.32 104 274.64 104 276 104 C276 102.68 276 101.36 276 100 C277.32 100 278.64 100 280 100 C280 98.68 280 97.36 280 96 C281.32 96 282.64 96 284 96 C284 93.36 284 90.72 284 88 C285.32 88 286.64 88 288 88 C288 86.68 288 85.36 288 84 C303.84 84 319.68 84 336 84 C336 78.72 336 73.44 336 68 C342.6 68 349.2 68 356 68 C356 73.28 356 78.56 356 84 C361.28 84 366.56 84 372 84 C372 77.4 372 70.8 372 64 C373.32 64 374.64 64 376 64 C376 62.68 376 61.36 376 60 C378.64 60 381.28 60 384 60 C384 58.68 384 57.36 384 56 C386.64 56 389.28 56 392 56 C392 54.68 392 53.36 392 52 C393.32 52 394.64 52 396 52 C396 50.68 396 49.36 396 48 C398.64 48 401.28 48 404 48 C404 46.68 404 45.36 404 44 C406.64 44 409.28 44 412 44 C412 42.68 412 41.36 412 40 C414.64 40 417.28 40 420 40 C420 38.68 420 37.36 420 36 C421.32 36 422.64 36 424 36 C424 34.68 424 33.36 424 32 C426.64 32 429.28 32 432 32 C432 30.68 432 29.36 432 28 C434.64 28 437.28 28 440 28 C440 26.68 440 25.36 440 24 C442.64 24 445.28 24 448 24 C448 22.68 448 21.36 448 20 C449.32 20 450.64 20 452 20 C452 18.68 452 17.36 452 16 C454.64 16 457.28 16 460 16 C460 14.68 460 13.36 460 12 C462.64 12 465.28 12 468 12 C468 10.68 468 9.36 468 8 C470.64 8 473.28 8 476 8 C476 6.68 476 5.36 476 4 C477.32 4 478.64 4 480 4 C480 2.68 480 1.36 480 0 C481.32 0 482.64 0 484 0 C484 168.96 484 337.92 484 512 C324.28 512 164.56 512 0 512 C0 343.04 0 174.08 0 0 Z M340 72 C340 75.96 340 79.92 340 84 C342.64 84 345.28 84 348 84 C348 80.04 348 76.08 348 72 C345.36 72 342.72 72 340 72 Z M116 76 C116 77.32 116 78.64 116 80 C114.68 80 113.36 80 112 80 C112 94.52 112 109.04 112 124 C115.96 124 119.92 124 124 124 C124 122.68 124 121.36 124 120 C125.32 120 126.64 120 128 120 C128 117.36 128 114.72 128 112 C129.32 112 130.64 112 132 112 C132 110.68 132 109.36 132 108 C134.64 108 137.28 108 140 108 C140 104.04 140 100.08 140 96 C138.68 96 137.36 96 136 96 C136 94.68 136 93.36 136 92 C134.68 92 133.36 92 132 92 C132 90.68 132 89.36 132 88 C130.68 88 129.36 88 128 88 C128 86.68 128 85.36 128 84 C126.68 84 125.36 84 124 84 C124 82.68 124 81.36 124 80 C122.68 80 121.36 80 120 80 C120 78.68 120 77.36 120 76 C118.68 76 117.36 76 116 76 Z M300 88 C300 90.64 300 93.28 300 96 C301.32 96 302.64 96 304 96 C304 97.32 304 98.64 304 100 C305.32 100 306.64 100 308 100 C308 102.64 308 105.28 308 108 C309.32 108 310.64 108 312 108 C312 110.64 312 113.28 312 116 C313.32 116 314.64 116 316 116 C316 117.32 316 118.64 316 120 C317.32 120 318.64 120 320 120 C320 122.64 320 125.28 320 128 C321.32 128 322.64 128 324 128 C324 129.32 324 130.64 324 132 C339.84 132 355.68 132 372 132 C372 117.48 372 102.96 372 88 C348.24 88 324.48 88 300 88 Z M288 92 C288 93.32 288 94.64 288 96 C286.68 96 285.36 96 284 96 C284 98.64 284 101.28 284 104 C282.68 104 281.36 104 280 104 C280 105.32 280 106.64 280 108 C278.68 108 277.36 108 276 108 C276 110.64 276 113.28 276 116 C274.68 116 273.36 116 272 116 C272 117.32 272 118.64 272 120 C270.68 120 269.36 120 268 120 C268 122.64 268 125.28 268 128 C266.68 128 265.36 128 264 128 C264 129.32 264 130.64 264 132 C281.16 132 298.32 132 316 132 C316 129.36 316 126.72 316 124 C314.68 124 313.36 124 312 124 C312 121.36 312 118.72 312 116 C310.68 116 309.36 116 308 116 C308 114.68 308 113.36 308 112 C306.68 112 305.36 112 304 112 C304 109.36 304 106.72 304 104 C302.68 104 301.36 104 300 104 C300 102.68 300 101.36 300 100 C298.68 100 297.36 100 296 100 C296 97.36 296 94.72 296 92 C293.36 92 290.72 92 288 92 Z M180 96 C180 97.32 180 98.64 180 100 C178.68 100 177.36 100 176 100 C176 101.32 176 102.64 176 104 C174.68 104 173.36 104 172 104 C172 107.96 172 111.92 172 116 C170.68 116 169.36 116 168 116 C168 117.32 168 118.64 168 120 C169.32 120 170.64 120 172 120 C172 123.96 172 127.92 172 132 C173.32 132 174.64 132 176 132 C176 133.32 176 134.64 176 136 C177.32 136 178.64 136 180 136 C180 137.32 180 138.64 180 140 C182.64 140 185.28 140 188 140 C188 141.32 188 142.64 188 144 C191.96 144 195.92 144 200 144 C200 142.68 200 141.36 200 140 C202.64 140 205.28 140 208 140 C208 138.68 208 137.36 208 136 C209.32 136 210.64 136 212 136 C212 134.68 212 133.36 212 132 C213.32 132 214.64 132 216 132 C216 129.36 216 126.72 216 124 C217.32 124 218.64 124 220 124 C220 121.36 220 118.72 220 116 C218.68 116 217.36 116 216 116 C216 112.04 216 108.08 216 104 C214.68 104 213.36 104 212 104 C212 102.68 212 101.36 212 100 C210.68 100 209.36 100 208 100 C208 98.68 208 97.36 208 96 C198.76 96 189.52 96 180 96 Z M260 136 C260 157.12 260 178.24 260 200 C266.6 200 273.2 200 280 200 C280 192.08 280 184.16 280 176 C286.6 176 293.2 176 300 176 C300 183.92 300 191.84 300 200 C306.6 200 313.2 200 320 200 C320 178.88 320 157.76 320 136 C300.2 136 280.4 136 260 136 Z M328 136 C328 157.12 328 178.24 328 200 C342.52 200 357.04 200 372 200 C372 196.04 372 192.08 372 188 C361.44 188 350.88 188 340 188 C340 176.12 340 164.24 340 152 C350.56 152 361.12 152 372 152 C372 146.72 372 141.44 372 136 C357.48 136 342.96 136 328 136 Z M192 148 C192 165.16 192 182.32 192 200 C193.32 200 194.64 200 196 200 C196 182.84 196 165.68 196 148 C194.68 148 193.36 148 192 148 Z M348 156 C348 159.96 348 163.92 348 168 C351.96 168 355.92 168 360 168 C360 164.04 360 160.08 360 156 C356.04 156 352.08 156 348 156 Z M364 156 C364 159.96 364 163.92 364 168 C366.64 168 369.28 168 372 168 C372 164.04 372 160.08 372 156 C369.36 156 366.72 156 364 156 Z M112 172 C112 177.28 112 182.56 112 188 C114.64 188 117.28 188 120 188 C120 184.04 120 180.08 120 176 C118.68 176 117.36 176 116 176 C116 174.68 116 173.36 116 172 C114.68 172 113.36 172 112 172 Z M348 172 C348 175.96 348 179.92 348 184 C351.96 184 355.92 184 360 184 C360 181.36 360 178.72 360 176 C358.68 176 357.36 176 356 176 C356 174.68 356 173.36 356 172 C353.36 172 350.72 172 348 172 Z M364 172 C364 175.96 364 179.92 364 184 C366.64 184 369.28 184 372 184 C372 180.04 372 176.08 372 172 C369.36 172 366.72 172 364 172 Z M144 176 C144 183.92 144 191.84 144 200 C145.32 200 146.64 200 148 200 C148 192.08 148 184.16 148 176 C146.68 176 145.36 176 144 176 Z M288 180 C288 181.32 288 182.64 288 184 C286.68 184 285.36 184 284 184 C284 189.28 284 194.56 284 200 C287.96 200 291.92 200 296 200 C296 194.72 296 189.44 296 184 C294.68 184 293.36 184 292 184 C292 182.68 292 181.36 292 180 C290.68 180 289.36 180 288 180 Z M112 208 C112 213.28 112 218.56 112 224 C197.8 224 283.6 224 372 224 C372 218.72 372 213.44 372 208 C286.2 208 200.4 208 112 208 Z M112 232 C112 235.96 112 239.92 112 244 C113.32 244 114.64 244 116 244 C116 245.32 116 246.64 116 248 C130.52 248 145.04 248 160 248 C160 246.68 160 245.36 160 244 C161.32 244 162.64 244 164 244 C164 245.32 164 246.64 164 248 C173.24 248 182.48 248 192 248 C192 246.68 192 245.36 192 244 C193.32 244 194.64 244 196 244 C196 245.32 196 246.64 196 248 C197.32 248 198.64 248 200 248 C200 246.68 200 245.36 200 244 C201.32 244 202.64 244 204 244 C204 242.68 204 241.36 204 240 C205.32 240 206.64 240 208 240 C208 238.68 208 237.36 208 236 C209.32 236 210.64 236 212 236 C212 234.68 212 233.36 212 232 C179 232 146 232 112 232 Z M264 232 C264 233.32 264 234.64 264 236 C269.28 236 274.56 236 280 236 C280 237.32 280 238.64 280 240 C281.32 240 282.64 240 284 240 C284 241.32 284 242.64 284 244 C285.32 244 286.64 244 288 244 C288 245.32 288 246.64 288 248 C315.72 248 343.44 248 372 248 C372 242.72 372 237.44 372 232 C336.36 232 300.72 232 264 232 Z M116 252 C116 253.32 116 254.64 116 256 C114.68 256 113.36 256 112 256 C112 269.2 112 282.4 112 296 C114.64 296 117.28 296 120 296 C120 294.68 120 293.36 120 292 C121.32 292 122.64 292 124 292 C124 290.68 124 289.36 124 288 C125.32 288 126.64 288 128 288 C128 285.36 128 282.72 128 280 C129.32 280 130.64 280 132 280 C132 278.68 132 277.36 132 276 C133.32 276 134.64 276 136 276 C136 273.36 136 270.72 136 268 C137.32 268 138.64 268 140 268 C140 266.68 140 265.36 140 264 C141.32 264 142.64 264 144 264 C144 261.36 144 258.72 144 256 C145.32 256 146.64 256 148 256 C148 254.68 148 253.36 148 252 C137.44 252 126.88 252 116 252 Z M160 252 C160 253.32 160 254.64 160 256 C161.32 256 162.64 256 164 256 C164 258.64 164 261.28 164 264 C165.32 264 166.64 264 168 264 C168 265.32 168 266.64 168 268 C169.32 268 170.64 268 172 268 C172 269.32 172 270.64 172 272 C173.32 272 174.64 272 176 272 C176 274.64 176 277.28 176 280 C177.32 280 178.64 280 180 280 C180 281.32 180 282.64 180 284 C181.32 284 182.64 284 184 284 C184 286.64 184 289.28 184 292 C185.32 292 186.64 292 188 292 C188 293.32 188 294.64 188 296 C189.32 296 190.64 296 192 296 C192 294.68 192 293.36 192 292 C193.32 292 194.64 292 196 292 C196 280.12 196 268.24 196 256 C197.32 256 198.64 256 200 256 C200 254.68 200 253.36 200 252 C186.8 252 173.6 252 160 252 Z M292 252 C292 255.96 292 259.92 292 264 C293.32 264 294.64 264 296 264 C296 271.92 296 279.84 296 288 C294.68 288 293.36 288 292 288 C292 290.64 292 293.28 292 296 C293.32 296 294.64 296 296 296 C296 297.32 296 298.64 296 300 C299.96 300 303.92 300 308 300 C308 301.32 308 302.64 308 304 C309.32 304 310.64 304 312 304 C312 305.32 312 306.64 312 308 C313.32 308 314.64 308 316 308 C316 310.64 316 313.28 316 316 C317.32 316 318.64 316 320 316 C320 317.32 320 318.64 320 320 C318.68 320 317.36 320 316 320 C316 322.64 316 325.28 316 328 C314.68 328 313.36 328 312 328 C312 322.72 312 317.44 312 312 C310.68 312 309.36 312 308 312 C308 310.68 308 309.36 308 308 C306.68 308 305.36 308 304 308 C304 306.68 304 305.36 304 304 C301.36 304 298.72 304 296 304 C296 306.64 296 309.28 296 312 C294.68 312 293.36 312 292 312 C292 315.96 292 319.92 292 324 C290.68 324 289.36 324 288 324 C288 326.64 288 329.28 288 332 C294.6 332 301.2 332 308 332 C308 333.32 308 334.64 308 336 C306.68 336 305.36 336 304 336 C304 345.24 304 354.48 304 364 C305.32 364 306.64 364 308 364 C308 365.32 308 366.64 308 368 C309.32 368 310.64 368 312 368 C312 366.68 312 365.36 312 364 C319.92 364 327.84 364 336 364 C336 346.84 336 329.68 336 312 C333.36 312 330.72 312 328 312 C328 310.68 328 309.36 328 308 C325.36 308 322.72 308 320 308 C320 306.68 320 305.36 320 304 C318.68 304 317.36 304 316 304 C316 301.36 316 298.72 316 296 C314.68 296 313.36 296 312 296 C312 288.08 312 280.16 312 272 C313.32 272 314.64 272 316 272 C316 269.36 316 266.72 316 264 C317.32 264 318.64 264 320 264 C320 262.68 320 261.36 320 260 C322.64 260 325.28 260 328 260 C328 258.68 328 257.36 328 256 C337.24 256 346.48 256 356 256 C356 257.32 356 258.64 356 260 C357.32 260 358.64 260 360 260 C360 261.32 360 262.64 360 264 C361.32 264 362.64 264 364 264 C364 265.32 364 266.64 364 268 C365.32 268 366.64 268 368 268 C368 270.64 368 273.28 368 276 C369.32 276 370.64 276 372 276 C372 268.08 372 260.16 372 252 C345.6 252 319.2 252 292 252 Z M152 256 C152 257.32 152 258.64 152 260 C150.68 260 149.36 260 148 260 C148 262.64 148 265.28 148 268 C146.68 268 145.36 268 144 268 C144 269.32 144 270.64 144 272 C142.68 272 141.36 272 140 272 C140 274.64 140 277.28 140 280 C138.68 280 137.36 280 136 280 C136 281.32 136 282.64 136 284 C134.68 284 133.36 284 132 284 C132 286.64 132 289.28 132 292 C130.68 292 129.36 292 128 292 C128 293.32 128 294.64 128 296 C145.16 296 162.32 296 180 296 C180 293.36 180 290.72 180 288 C178.68 288 177.36 288 176 288 C176 286.68 176 285.36 176 284 C174.68 284 173.36 284 172 284 C172 281.36 172 278.72 172 276 C170.68 276 169.36 276 168 276 C168 274.68 168 273.36 168 272 C166.68 272 165.36 272 164 272 C164 269.36 164 266.72 164 264 C162.68 264 161.36 264 160 264 C160 262.68 160 261.36 160 260 C158.68 260 157.36 260 156 260 C156 258.68 156 257.36 156 256 C154.68 256 153.36 256 152 256 Z M328 260 C328 261.32 328 262.64 328 264 C326.68 264 325.36 264 324 264 C324 265.32 324 266.64 324 268 C322.68 268 321.36 268 320 268 C320 270.64 320 273.28 320 276 C318.68 276 317.36 276 316 276 C316 281.28 316 286.56 316 292 C317.32 292 318.64 292 320 292 C320 294.64 320 297.28 320 300 C321.32 300 322.64 300 324 300 C324 301.32 324 302.64 324 304 C326.64 304 329.28 304 332 304 C332 305.32 332 306.64 332 308 C338.6 308 345.2 308 352 308 C352 306.68 352 305.36 352 304 C353.32 304 354.64 304 356 304 C356 302.68 356 301.36 356 300 C357.32 300 358.64 300 360 300 C360 298.68 360 297.36 360 296 C361.32 296 362.64 296 364 296 C364 288.08 364 280.16 364 272 C362.68 272 361.36 272 360 272 C360 270.68 360 269.36 360 268 C358.68 268 357.36 268 356 268 C356 266.68 356 265.36 356 264 C354.68 264 353.36 264 352 264 C352 262.68 352 261.36 352 260 C344.08 260 336.16 260 328 260 Z M368 288 C368 291.96 368 295.92 368 300 C366.68 300 365.36 300 364 300 C364 301.32 364 302.64 364 304 C362.68 304 361.36 304 360 304 C360 305.32 360 306.64 360 308 C358.68 308 357.36 308 356 308 C356 309.32 356 310.64 356 312 C353.36 312 350.72 312 348 312 C348 329.16 348 346.32 348 364 C349.32 364 350.64 364 352 364 C352 365.32 352 366.64 352 368 C353.32 368 354.64 368 356 368 C356 366.68 356 365.36 356 364 C361.28 364 366.56 364 372 364 C372 338.92 372 313.84 372 288 C370.68 288 369.36 288 368 288 Z M116 300 C116 301.32 116 302.64 116 304 C114.68 304 113.36 304 112 304 C112 323.8 112 343.6 112 364 C114.64 364 117.28 364 120 364 C120 342.88 120 321.76 120 300 C118.68 300 117.36 300 116 300 Z M124 300 C124 321.12 124 342.24 124 364 C130.6 364 137.2 364 144 364 C144 357.4 144 350.8 144 344 C145.32 344 146.64 344 148 344 C148 342.68 148 341.36 148 340 C153.28 340 158.56 340 164 340 C164 347.92 164 355.84 164 364 C169.28 364 174.56 364 180 364 C180 365.32 180 366.64 180 368 C181.32 368 182.64 368 184 368 C184 345.56 184 323.12 184 300 C164.2 300 144.4 300 124 300 Z M192 300 C192 313.2 192 326.4 192 340 C194.64 340 197.28 340 200 340 C200 341.32 200 342.64 200 344 C202.64 344 205.28 344 208 344 C208 340.04 208 336.08 208 332 C206.68 332 205.36 332 204 332 C204 330.68 204 329.36 204 328 C202.68 328 201.36 328 200 328 C200 325.36 200 322.72 200 320 C198.68 320 197.36 320 196 320 C196 313.4 196 306.8 196 300 C194.68 300 193.36 300 192 300 Z M340 312 C340 329.16 340 346.32 340 364 C341.32 364 342.64 364 344 364 C344 346.84 344 329.68 344 312 C342.68 312 341.36 312 340 312 Z M284 332 C284 333.32 284 334.64 284 336 C282.68 336 281.36 336 280 336 C280 338.64 280 341.28 280 344 C278.68 344 277.36 344 276 344 C276 346.64 276 349.28 276 352 C274.68 352 273.36 352 272 352 C272 354.64 272 357.28 272 360 C270.68 360 269.36 360 268 360 C268 361.32 268 362.64 268 364 C269.32 364 270.64 364 272 364 C272 365.32 272 366.64 272 368 C273.32 368 274.64 368 276 368 C276 366.68 276 365.36 276 364 C281.28 364 286.56 364 292 364 C292 354.76 292 345.52 292 336 C290.68 336 289.36 336 288 336 C288 334.68 288 333.36 288 332 C286.68 332 285.36 332 284 332 Z M296 340 C296 347.92 296 355.84 296 364 C297.32 364 298.64 364 300 364 C300 356.08 300 348.16 300 340 C298.68 340 297.36 340 296 340 Z M192 344 C192 351.92 192 359.84 192 368 C193.32 368 194.64 368 196 368 C196 366.68 196 365.36 196 364 C201.28 364 206.56 364 212 364 C212 365.32 212 366.64 212 368 C213.32 368 214.64 368 216 368 C216 366.68 216 365.36 216 364 C217.32 364 218.64 364 220 364 C220 361.36 220 358.72 220 356 C218.68 356 217.36 356 216 356 C216 353.36 216 350.72 216 348 C209.4 348 202.8 348 196 348 C196 346.68 196 345.36 196 344 C194.68 344 193.36 344 192 344 Z M148 348 C148 353.28 148 358.56 148 364 C149.32 364 150.64 364 152 364 C152 365.32 152 366.64 152 368 C153.32 368 154.64 368 156 368 C156 366.68 156 365.36 156 364 C157.32 364 158.64 364 160 364 C160 358.72 160 353.44 160 348 C156.04 348 152.08 348 148 348 Z M112 372 C112 377.28 112 382.56 112 388 C113.32 388 114.64 388 116 388 C116 389.32 116 390.64 116 392 C133.16 392 150.32 392 168 392 C168 390.68 168 389.36 168 388 C170.64 388 173.28 388 176 388 C176 386.68 176 385.36 176 384 C177.32 384 178.64 384 180 384 C180 382.68 180 381.36 180 380 C183.96 380 187.92 380 192 380 C192 378.68 192 377.36 192 376 C197.28 376 202.56 376 208 376 C208 374.68 208 373.36 208 372 C176.32 372 144.64 372 112 372 Z M280 372 C280 373.32 280 374.64 280 376 C285.28 376 290.56 376 296 376 C296 377.32 296 378.64 296 380 C298.64 380 301.28 380 304 380 C304 381.32 304 382.64 304 384 C306.64 384 309.28 384 312 384 C312 385.32 312 386.64 312 388 C314.64 388 317.28 388 320 388 C320 389.32 320 390.64 320 392 C337.16 392 354.32 392 372 392 C372 385.4 372 378.8 372 372 C341.64 372 311.28 372 280 372 Z M112 396 C112 399.96 112 403.92 112 408 C113.32 408 114.64 408 116 408 C116 409.32 116 410.64 116 412 C126.56 412 137.12 412 148 412 C148 410.68 148 409.36 148 408 C149.32 408 150.64 408 152 408 C152 406.68 152 405.36 152 404 C153.32 404 154.64 404 156 404 C156 402.68 156 401.36 156 400 C157.32 400 158.64 400 160 400 C160 398.68 160 397.36 160 396 C144.16 396 128.32 396 112 396 Z M328 396 C328 397.32 328 398.64 328 400 C329.32 400 330.64 400 332 400 C332 401.32 332 402.64 332 404 C333.32 404 334.64 404 336 404 C336 405.32 336 406.64 336 408 C337.32 408 338.64 408 340 408 C340 409.32 340 410.64 340 412 C350.56 412 361.12 412 372 412 C372 406.72 372 401.44 372 396 C357.48 396 342.96 396 328 396 Z M112 416 C112 417.32 112 418.64 112 420 C113.32 420 114.64 420 116 420 C116 421.32 116 422.64 116 424 C119.96 424 123.92 424 128 424 C128 422.68 128 421.36 128 420 C130.64 420 133.28 420 136 420 C136 418.68 136 417.36 136 416 C128.08 416 120.16 416 112 416 Z M356 416 C356 417.32 356 418.64 356 420 C357.32 420 358.64 420 360 420 C360 421.32 360 422.64 360 424 C362.64 424 365.28 424 368 424 C368 425.32 368 426.64 368 428 C369.32 428 370.64 428 372 428 C372 424.04 372 420.08 372 416 C366.72 416 361.44 416 356 416 Z M176 448 C176 449.32 176 450.64 176 452 C173.36 452 170.72 452 168 452 C168 453.32 168 454.64 168 456 C165.36 456 162.72 456 160 456 C160 457.32 160 458.64 160 460 C157.36 460 154.72 460 152 460 C152 461.32 152 462.64 152 464 C153.32 464 154.64 464 156 464 C156 465.32 156 466.64 156 468 C157.32 468 158.64 468 160 468 C160 469.32 160 470.64 160 472 C161.32 472 162.64 472 164 472 C164 473.32 164 474.64 164 476 C166.64 476 169.28 476 172 476 C172 474.68 172 473.36 172 472 C174.64 472 177.28 472 180 472 C180 464.08 180 456.16 180 448 C178.68 448 177.36 448 176 448 Z M316 456 C316 459.96 316 463.92 316 468 C317.32 468 318.64 468 320 468 C320 470.64 320 473.28 320 476 C322.64 476 325.28 476 328 476 C328 477.32 328 478.64 328 480 C330.64 480 333.28 480 336 480 C336 481.32 336 482.64 336 484 C339.96 484 343.92 484 348 484 C348 482.68 348 481.36 348 480 C350.64 480 353.28 480 356 480 C356 481.32 356 482.64 356 484 C354.68 484 353.36 484 352 484 C352 485.32 352 486.64 352 488 C350.68 488 349.36 488 348 488 C348 494.6 348 501.2 348 508 C355.92 508 363.84 508 372 508 C372 502.72 372 497.44 372 492 C370.68 492 369.36 492 368 492 C368 486.72 368 481.44 368 476 C365.36 476 362.72 476 360 476 C360 474.68 360 473.36 360 472 C357.36 472 354.72 472 352 472 C352 470.68 352 469.36 352 468 C349.36 468 346.72 468 344 468 C344 466.68 344 465.36 344 464 C341.36 464 338.72 464 336 464 C336 462.68 336 461.36 336 460 C333.36 460 330.72 460 328 460 C328 458.68 328 457.36 328 456 C324.04 456 320.08 456 316 456 Z M144 464 C144 465.32 144 466.64 144 468 C145.32 468 146.64 468 148 468 C148 466.68 148 465.36 148 464 C146.68 464 145.36 464 144 464 Z M148 468 C148 469.32 148 470.64 148 472 C149.32 472 150.64 472 152 472 C152 470.68 152 469.36 152 468 C150.68 468 149.36 468 148 468 Z M128 472 C128 473.32 128 474.64 128 476 C125.36 476 122.72 476 120 476 C120 477.32 120 478.64 120 480 C118.68 480 117.36 480 116 480 C116 483.96 116 487.92 116 492 C114.68 492 113.36 492 112 492 C112 494.64 112 497.28 112 500 C113.32 500 114.64 500 116 500 C116 501.32 116 502.64 116 504 C121.28 504 126.56 504 132 504 C132 501.36 132 498.72 132 496 C133.32 496 134.64 496 136 496 C136 494.68 136 493.36 136 492 C137.32 492 138.64 492 140 492 C140 490.68 140 489.36 140 488 C141.32 488 142.64 488 144 488 C144 486.68 144 485.36 144 484 C145.32 484 146.64 484 148 484 C148 481.36 148 478.72 148 476 C146.68 476 145.36 476 144 476 C144 474.68 144 473.36 144 472 C138.72 472 133.44 472 128 472 Z M152 472 C152 477.28 152 482.56 152 488 C150.68 488 149.36 488 148 488 C148 489.32 148 490.64 148 492 C146.68 492 145.36 492 144 492 C144 493.32 144 494.64 144 496 C142.68 496 141.36 496 140 496 C140 497.32 140 498.64 140 500 C138.68 500 137.36 500 136 500 C136 502.64 136 505.28 136 508 C143.92 508 151.84 508 160 508 C160 497.44 160 486.88 160 476 C158.68 476 157.36 476 156 476 C156 474.68 156 473.36 156 472 C154.68 472 153.36 472 152 472 Z M176 476 C176 486.56 176 497.12 176 508 C177.32 508 178.64 508 180 508 C180 497.44 180 486.88 180 476 C178.68 476 177.36 476 176 476 Z M164 480 C164 487.92 164 495.84 164 504 C166.64 504 169.28 504 172 504 C172 496.08 172 488.16 172 480 C169.36 480 166.72 480 164 480 Z M316 480 C316 487.92 316 495.84 316 504 C317.32 504 318.64 504 320 504 C320 505.32 320 506.64 320 508 C325.28 508 330.56 508 336 508 C336 501.4 336 494.8 336 488 C334.68 488 333.36 488 332 488 C332 486.68 332 485.36 332 484 C329.36 484 326.72 484 324 484 C324 482.68 324 481.36 324 480 C321.36 480 318.72 480 316 480 Z M340 488 C340 493.28 340 498.56 340 504 C341.32 504 342.64 504 344 504 C344 498.72 344 493.44 344 488 C342.68 488 341.36 488 340 488 Z " fill="#000000" transform="translate(0,0)"/>
<path d="M0 0 C3.96 0 7.92 0 12 0 C12 1.32 12 2.64 12 4 C13.32 4 14.64 4 16 4 C16 7.96 16 11.92 16 16 C14.68 16 13.36 16 12 16 C12 17.32 12 18.64 12 20 C8.04 20 4.08 20 0 20 C0 18.68 0 17.36 0 16 C-1.32 16 -2.64 16 -4 16 C-4 12.04 -4 8.08 -4 4 C-2.68 4 -1.36 4 0 4 C0 2.68 0 1.36 0 0 Z M0 4 C0 6.64 0 9.28 0 12 C1.32 12 2.64 12 4 12 C4 13.32 4 14.64 4 16 C5.32 16 6.64 16 8 16 C8 14.68 8 13.36 8 12 C9.32 12 10.64 12 12 12 C12 10.68 12 9.36 12 8 C10.68 8 9.36 8 8 8 C8 6.68 8 5.36 8 4 C5.36 4 2.72 4 0 4 Z " fill="#000000" transform="translate(236,92)"/>
<path d="M0 0 C3.96 0 7.92 0 12 0 C12 1.32 12 2.64 12 4 C13.32 4 14.64 4 16 4 C16 5.32 16 6.64 16 8 C9.4 8 2.8 8 -4 8 C-4 10.64 -4 13.28 -4 16 C-5.32 16 -6.64 16 -8 16 C-8 17.32 -8 18.64 -8 20 C-9.32 20 -10.64 20 -12 20 C-12 21.32 -12 22.64 -12 24 C-13.32 24 -14.64 24 -16 24 C-16 25.32 -16 26.64 -16 28 C-17.32 28 -18.64 28 -20 28 C-20 30.64 -20 33.28 -20 36 C-18.68 36 -17.36 36 -16 36 C-16 37.32 -16 38.64 -16 40 C-13.36 40 -10.72 40 -8 40 C-8 42.64 -8 45.28 -8 48 C-9.32 48 -10.64 48 -12 48 C-12 46.68 -12 45.36 -12 44 C-14.64 44 -17.28 44 -20 44 C-20 42.68 -20 41.36 -20 40 C-21.32 40 -22.64 40 -24 40 C-24 34.72 -24 29.44 -24 24 C-22.68 24 -21.36 24 -20 24 C-20 22.68 -20 21.36 -20 20 C-18.68 20 -17.36 20 -16 20 C-16 18.68 -16 17.36 -16 16 C-14.68 16 -13.36 16 -12 16 C-12 14.68 -12 13.36 -12 12 C-10.68 12 -9.36 12 -8 12 C-8 9.36 -8 6.72 -8 4 C-5.36 4 -2.72 4 0 4 C0 2.68 0 1.36 0 0 Z " fill="#000000" transform="translate(236,124)"/>
<path d="M0 0 C3.96 0 7.92 0 12 0 C12 1.32 12 2.64 12 4 C13.32 4 14.64 4 16 4 C16 5.32 16 6.64 16 8 C9.4 8 2.8 8 -4 8 C-4 9.32 -4 10.64 -4 12 C-5.32 12 -6.64 12 -8 12 C-8 18.6 -8 25.2 -8 32 C-9.32 32 -10.64 32 -12 32 C-12 29.36 -12 26.72 -12 24 C-13.32 24 -14.64 24 -16 24 C-16 21.36 -16 18.72 -16 16 C-14.68 16 -13.36 16 -12 16 C-12 13.36 -12 10.72 -12 8 C-10.68 8 -9.36 8 -8 8 C-8 6.68 -8 5.36 -8 4 C-5.36 4 -2.72 4 0 4 C0 2.68 0 1.36 0 0 Z " fill="#000000" transform="translate(140,132)"/>
<path d="M0 0 C5.28 0 10.56 0 16 0 C16 3.96 16 7.92 16 12 C14.68 12 13.36 12 12 12 C12 13.32 12 14.64 12 16 C9.36 16 6.72 16 4 16 C4 14.68 4 13.36 4 12 C2.68 12 1.36 12 0 12 C0 8.04 0 4.08 0 0 Z M4 4 C4 5.32 4 6.64 4 8 C6.64 8 9.28 8 12 8 C12 6.68 12 5.36 12 4 C9.36 4 6.72 4 4 4 Z " fill="#000000" transform="translate(264,148)"/>
<path d="M0 0 C5.28 0 10.56 0 16 0 C16 3.96 16 7.92 16 12 C14.68 12 13.36 12 12 12 C12 13.32 12 14.64 12 16 C9.36 16 6.72 16 4 16 C4 14.68 4 13.36 4 12 C2.68 12 1.36 12 0 12 C0 8.04 0 4.08 0 0 Z M8 4 C8 5.32 8 6.64 8 8 C9.32 8 10.64 8 12 8 C12 6.68 12 5.36 12 4 C10.68 4 9.36 4 8 4 Z " fill="#000000" transform="translate(300,148)"/>
<path d="M0 0 C2.64 0 5.28 0 8 0 C8 1.32 8 2.64 8 4 C14.6 4 21.2 4 28 4 C28 5.32 28 6.64 28 8 C30.64 8 33.28 8 36 8 C36 9.32 36 10.64 36 12 C38.64 12 41.28 12 44 12 C44 13.32 44 14.64 44 16 C45.32 16 46.64 16 48 16 C48 17.32 48 18.64 48 20 C50.64 20 53.28 20 56 20 C56 21.32 56 22.64 56 24 C57.32 24 58.64 24 60 24 C60 26.64 60 29.28 60 32 C61.32 32 62.64 32 64 32 C64 33.32 64 34.64 64 36 C65.32 36 66.64 36 68 36 C68 38.64 68 41.28 68 44 C69.32 44 70.64 44 72 44 C72 49.28 72 54.56 72 60 C73.32 60 74.64 60 76 60 C76 67.92 76 75.84 76 84 C74.68 84 73.36 84 72 84 C72 89.28 72 94.56 72 100 C70.68 100 69.36 100 68 100 C68 102.64 68 105.28 68 108 C66.68 108 65.36 108 64 108 C64 109.32 64 110.64 64 112 C62.68 112 61.36 112 60 112 C60 113.32 60 114.64 60 116 C58.68 116 57.36 116 56 116 C56 118.64 56 121.28 56 124 C53.36 124 50.72 124 48 124 C48 125.32 48 126.64 48 128 C46.68 128 45.36 128 44 128 C44 129.32 44 130.64 44 132 C41.36 132 38.72 132 36 132 C36 133.32 36 134.64 36 136 C33.36 136 30.72 136 28 136 C28 137.32 28 138.64 28 140 C13.48 140 -1.04 140 -16 140 C-16 138.68 -16 137.36 -16 136 C-19.96 136 -23.92 136 -28 136 C-28 134.68 -28 133.36 -28 132 C-30.64 132 -33.28 132 -36 132 C-36 130.68 -36 129.36 -36 128 C-37.32 128 -38.64 128 -40 128 C-40 126.68 -40 125.36 -40 124 C-41.32 124 -42.64 124 -44 124 C-44 122.68 -44 121.36 -44 120 C-45.32 120 -46.64 120 -48 120 C-48 118.68 -48 117.36 -48 116 C-49.32 116 -50.64 116 -52 116 C-52 114.68 -52 113.36 -52 112 C-53.32 112 -54.64 112 -56 112 C-56 109.36 -56 106.72 -56 104 C-57.32 104 -58.64 104 -60 104 C-60 101.36 -60 98.72 -60 96 C-61.32 96 -62.64 96 -64 96 C-64 89.4 -64 82.8 -64 76 C-65.32 76 -66.64 76 -68 76 C-68 73.36 -68 70.72 -68 68 C-66.68 68 -65.36 68 -64 68 C-64 61.4 -64 54.8 -64 48 C-62.68 48 -61.36 48 -60 48 C-60 45.36 -60 42.72 -60 40 C-58.68 40 -57.36 40 -56 40 C-56 37.36 -56 34.72 -56 32 C-54.68 32 -53.36 32 -52 32 C-52 30.68 -52 29.36 -52 28 C-50.68 28 -49.36 28 -48 28 C-48 26.68 -48 25.36 -48 24 C-46.68 24 -45.36 24 -44 24 C-44 22.68 -44 21.36 -44 20 C-42.68 20 -41.36 20 -40 20 C-40 18.68 -40 17.36 -40 16 C-38.68 16 -37.36 16 -36 16 C-36 14.68 -36 13.36 -36 12 C-33.36 12 -30.72 12 -28 12 C-28 10.68 -28 9.36 -28 8 C-25.36 8 -22.72 8 -20 8 C-20 6.68 -20 5.36 -20 4 C-13.4 4 -6.8 4 0 4 C0 2.68 0 1.36 0 0 Z M-8 28 C-8 29.32 -8 30.64 -8 32 C-11.96 32 -15.92 32 -20 32 C-20 33.32 -20 34.64 -20 36 C-21.32 36 -22.64 36 -24 36 C-24 37.32 -24 38.64 -24 40 C-25.32 40 -26.64 40 -28 40 C-28 41.32 -28 42.64 -28 44 C-29.32 44 -30.64 44 -32 44 C-32 46.64 -32 49.28 -32 52 C-33.32 52 -34.64 52 -36 52 C-36 54.64 -36 57.28 -36 60 C-37.32 60 -38.64 60 -40 60 C-40 67.92 -40 75.84 -40 84 C-38.68 84 -37.36 84 -36 84 C-36 86.64 -36 89.28 -36 92 C-34.68 92 -33.36 92 -32 92 C-32 94.64 -32 97.28 -32 100 C-30.68 100 -29.36 100 -28 100 C-28 101.32 -28 102.64 -28 104 C-26.68 104 -25.36 104 -24 104 C-24 105.32 -24 106.64 -24 108 C-21.36 108 -18.72 108 -16 108 C-16 109.32 -16 110.64 -16 112 C-13.36 112 -10.72 112 -8 112 C-8 113.32 -8 114.64 -8 116 C-0.08 116 7.84 116 16 116 C16 114.68 16 113.36 16 112 C19.96 112 23.92 112 28 112 C28 110.68 28 109.36 28 108 C29.32 108 30.64 108 32 108 C32 106.68 32 105.36 32 104 C33.32 104 34.64 104 36 104 C36 102.68 36 101.36 36 100 C37.32 100 38.64 100 40 100 C40 98.68 40 97.36 40 96 C41.32 96 42.64 96 44 96 C44 93.36 44 90.72 44 88 C45.32 88 46.64 88 48 88 C48 77.44 48 66.88 48 56 C46.68 56 45.36 56 44 56 C44 53.36 44 50.72 44 48 C42.68 48 41.36 48 40 48 C40 46.68 40 45.36 40 44 C38.68 44 37.36 44 36 44 C36 42.68 36 41.36 36 40 C34.68 40 33.36 40 32 40 C32 38.68 32 37.36 32 36 C30.68 36 29.36 36 28 36 C28 34.68 28 33.36 28 32 C25.36 32 22.72 32 20 32 C20 30.68 20 29.36 20 28 C10.76 28 1.52 28 -8 28 Z " fill="#000000" transform="translate(1204,164)"/>
<path d="M0 0 C21.12 0 42.24 0 64 0 C64 1.32 64 2.64 64 4 C66.64 4 69.28 4 72 4 C72 5.32 72 6.64 72 8 C74.64 8 77.28 8 80 8 C80 9.32 80 10.64 80 12 C81.32 12 82.64 12 84 12 C84 13.32 84 14.64 84 16 C85.32 16 86.64 16 88 16 C88 18.64 88 21.28 88 24 C89.32 24 90.64 24 92 24 C92 27.96 92 31.92 92 36 C93.32 36 94.64 36 96 36 C96 39.96 96 43.92 96 48 C94.68 48 93.36 48 92 48 C92 51.96 92 55.92 92 60 C90.68 60 89.36 60 88 60 C88 62.64 88 65.28 88 68 C86.68 68 85.36 68 84 68 C84 69.32 84 70.64 84 72 C82.68 72 81.36 72 80 72 C80 73.32 80 74.64 80 76 C78.68 76 77.36 76 76 76 C76 77.32 76 78.64 76 80 C73.36 80 70.72 80 68 80 C68 81.32 68 82.64 68 84 C54.8 84 41.6 84 28 84 C28 99.84 28 115.68 28 132 C26.68 132 25.36 132 24 132 C24 133.32 24 134.64 24 136 C17.4 136 10.8 136 4 136 C4 134.68 4 133.36 4 132 C2.68 132 1.36 132 0 132 C0 88.44 0 44.88 0 0 Z M28 24 C28 35.88 28 47.76 28 60 C38.56 60 49.12 60 60 60 C60 58.68 60 57.36 60 56 C61.32 56 62.64 56 64 56 C64 54.68 64 53.36 64 52 C65.32 52 66.64 52 68 52 C68 45.4 68 38.8 68 32 C66.68 32 65.36 32 64 32 C64 30.68 64 29.36 64 28 C61.36 28 58.72 28 56 28 C56 26.68 56 25.36 56 24 C46.76 24 37.52 24 28 24 Z " fill="#000000" transform="translate(588,168)"/>
<path d="M0 0 C7.92 0 15.84 0 24 0 C24 30.36 24 60.72 24 92 C25.32 92 26.64 92 28 92 C28 94.64 28 97.28 28 100 C29.32 100 30.64 100 32 100 C32 101.32 32 102.64 32 104 C33.32 104 34.64 104 36 104 C36 105.32 36 106.64 36 108 C38.64 108 41.28 108 44 108 C44 109.32 44 110.64 44 112 C50.6 112 57.2 112 64 112 C64 110.68 64 109.36 64 108 C66.64 108 69.28 108 72 108 C72 106.68 72 105.36 72 104 C73.32 104 74.64 104 76 104 C76 101.36 76 98.72 76 96 C77.32 96 78.64 96 80 96 C80 65.64 80 35.28 80 4 C81.32 4 82.64 4 84 4 C84 2.68 84 1.36 84 0 C91.92 0 99.84 0 108 0 C108 33 108 66 108 100 C106.68 100 105.36 100 104 100 C104 102.64 104 105.28 104 108 C102.68 108 101.36 108 100 108 C100 110.64 100 113.28 100 116 C98.68 116 97.36 116 96 116 C96 117.32 96 118.64 96 120 C94.68 120 93.36 120 92 120 C92 121.32 92 122.64 92 124 C90.68 124 89.36 124 88 124 C88 125.32 88 126.64 88 128 C85.36 128 82.72 128 80 128 C80 129.32 80 130.64 80 132 C77.36 132 74.72 132 72 132 C72 133.32 72 134.64 72 136 C58.8 136 45.6 136 32 136 C32 134.68 32 133.36 32 132 C29.36 132 26.72 132 24 132 C24 130.68 24 129.36 24 128 C22.68 128 21.36 128 20 128 C20 126.68 20 125.36 20 124 C18.68 124 17.36 124 16 124 C16 122.68 16 121.36 16 120 C14.68 120 13.36 120 12 120 C12 118.68 12 117.36 12 116 C10.68 116 9.36 116 8 116 C8 114.68 8 113.36 8 112 C6.68 112 5.36 112 4 112 C4 109.36 4 106.72 4 104 C2.68 104 1.36 104 0 104 C0 69.68 0 35.36 0 0 Z " fill="#000000" transform="translate(728,168)"/>
<path d="M0 0 C7.92 0 15.84 0 24 0 C24 1.32 24 2.64 24 4 C25.32 4 26.64 4 28 4 C28 39.64 28 75.28 28 112 C45.16 112 62.32 112 80 112 C80 119.92 80 127.84 80 136 C53.6 136 27.2 136 0 136 C0 91.12 0 46.24 0 0 Z " fill="#000000" transform="translate(892,168)"/>
<path d="M0 0 C27.72 0 55.44 0 84 0 C84 7.92 84 15.84 84 24 C64.2 24 44.4 24 24 24 C24 35.88 24 47.76 24 60 C41.16 60 58.32 60 76 60 C76 67.92 76 75.84 76 84 C58.84 84 41.68 84 24 84 C24 101.16 24 118.32 24 136 C16.08 136 8.16 136 0 136 C0 91.12 0 46.24 0 0 Z " fill="#000000" transform="translate(1016,168)"/>
<path d="M0 0 C23.76 0 47.52 0 72 0 C72 1.32 72 2.64 72 4 C74.64 4 77.28 4 80 4 C80 5.32 80 6.64 80 8 C82.64 8 85.28 8 88 8 C88 9.32 88 10.64 88 12 C89.32 12 90.64 12 92 12 C92 13.32 92 14.64 92 16 C93.32 16 94.64 16 96 16 C96 18.64 96 21.28 96 24 C97.32 24 98.64 24 100 24 C100 27.96 100 31.92 100 36 C101.32 36 102.64 36 104 36 C104 39.96 104 43.92 104 48 C102.68 48 101.36 48 100 48 C100 51.96 100 55.92 100 60 C98.68 60 97.36 60 96 60 C96 61.32 96 62.64 96 64 C94.68 64 93.36 64 92 64 C92 66.64 92 69.28 92 72 C89.36 72 86.72 72 84 72 C84 73.32 84 74.64 84 76 C82.68 76 81.36 76 80 76 C80 77.32 80 78.64 80 80 C78.68 80 77.36 80 76 80 C76 82.64 76 85.28 76 88 C77.32 88 78.64 88 80 88 C80 90.64 80 93.28 80 96 C81.32 96 82.64 96 84 96 C84 98.64 84 101.28 84 104 C85.32 104 86.64 104 88 104 C88 106.64 88 109.28 88 112 C89.32 112 90.64 112 92 112 C92 114.64 92 117.28 92 120 C93.32 120 94.64 120 96 120 C96 122.64 96 125.28 96 128 C97.32 128 98.64 128 100 128 C100 130.64 100 133.28 100 136 C90.76 136 81.52 136 72 136 C72 133.36 72 130.72 72 128 C70.68 128 69.36 128 68 128 C68 125.36 68 122.72 68 120 C66.68 120 65.36 120 64 120 C64 117.36 64 114.72 64 112 C62.68 112 61.36 112 60 112 C60 109.36 60 106.72 60 104 C58.68 104 57.36 104 56 104 C56 101.36 56 98.72 56 96 C54.68 96 53.36 96 52 96 C52 93.36 52 90.72 52 88 C50.68 88 49.36 88 48 88 C48 86.68 48 85.36 48 84 C40.08 84 32.16 84 24 84 C24 101.16 24 118.32 24 136 C16.08 136 8.16 136 0 136 C0 91.12 0 46.24 0 0 Z M24 24 C24 35.88 24 47.76 24 60 C38.52 60 53.04 60 68 60 C68 58.68 68 57.36 68 56 C69.32 56 70.64 56 72 56 C72 54.68 72 53.36 72 52 C73.32 52 74.64 52 76 52 C76 46.72 76 41.44 76 36 C74.68 36 73.36 36 72 36 C72 33.36 72 30.72 72 28 C70.68 28 69.36 28 68 28 C68 26.68 68 25.36 68 24 C53.48 24 38.96 24 24 24 Z " fill="#000000" transform="translate(1328,168)"/>
<path d="M0 0 C21.12 0 42.24 0 64 0 C64 1.32 64 2.64 64 4 C67.96 4 71.92 4 76 4 C76 5.32 76 6.64 76 8 C78.64 8 81.28 8 84 8 C84 9.32 84 10.64 84 12 C85.32 12 86.64 12 88 12 C88 13.32 88 14.64 88 16 C90.64 16 93.28 16 96 16 C96 17.32 96 18.64 96 20 C97.32 20 98.64 20 100 20 C100 22.64 100 25.28 100 28 C101.32 28 102.64 28 104 28 C104 29.32 104 30.64 104 32 C105.32 32 106.64 32 108 32 C108 34.64 108 37.28 108 40 C109.32 40 110.64 40 112 40 C112 43.96 112 47.92 112 52 C113.32 52 114.64 52 116 52 C116 62.56 116 73.12 116 84 C114.68 84 113.36 84 112 84 C112 87.96 112 91.92 112 96 C110.68 96 109.36 96 108 96 C108 98.64 108 101.28 108 104 C106.68 104 105.36 104 104 104 C104 105.32 104 106.64 104 108 C102.68 108 101.36 108 100 108 C100 109.32 100 110.64 100 112 C98.68 112 97.36 112 96 112 C96 113.32 96 114.64 96 116 C94.68 116 93.36 116 92 116 C92 117.32 92 118.64 92 120 C90.68 120 89.36 120 88 120 C88 121.32 88 122.64 88 124 C86.68 124 85.36 124 84 124 C84 125.32 84 126.64 84 128 C81.36 128 78.72 128 76 128 C76 129.32 76 130.64 76 132 C72.04 132 68.08 132 64 132 C64 133.32 64 134.64 64 136 C42.88 136 21.76 136 0 136 C0 134.68 0 133.36 0 132 C-1.32 132 -2.64 132 -4 132 C-4 89.76 -4 47.52 -4 4 C-2.68 4 -1.36 4 0 4 C0 2.68 0 1.36 0 0 Z M24 24 C24 53.04 24 82.08 24 112 C35.88 112 47.76 112 60 112 C60 110.68 60 109.36 60 108 C62.64 108 65.28 108 68 108 C68 106.68 68 105.36 68 104 C69.32 104 70.64 104 72 104 C72 102.68 72 101.36 72 100 C73.32 100 74.64 100 76 100 C76 98.68 76 97.36 76 96 C77.32 96 78.64 96 80 96 C80 94.68 80 93.36 80 92 C81.32 92 82.64 92 84 92 C84 89.36 84 86.72 84 84 C85.32 84 86.64 84 88 84 C88 73.44 88 62.88 88 52 C86.68 52 85.36 52 84 52 C84 49.36 84 46.72 84 44 C82.68 44 81.36 44 80 44 C80 42.68 80 41.36 80 40 C78.68 40 77.36 40 76 40 C76 38.68 76 37.36 76 36 C74.68 36 73.36 36 72 36 C72 34.68 72 33.36 72 32 C70.68 32 69.36 32 68 32 C68 30.68 68 29.36 68 28 C65.36 28 62.72 28 60 28 C60 26.68 60 25.36 60 24 C48.12 24 36.24 24 24 24 Z " fill="#000000" transform="translate(1484,168)"/>
<path d="M0 0 C3.96 0 7.92 0 12 0 C12 1.32 12 2.64 12 4 C13.32 4 14.64 4 16 4 C16 5.32 16 6.64 16 8 C14.68 8 13.36 8 12 8 C12 9.32 12 10.64 12 12 C10.68 12 9.36 12 8 12 C8 13.32 8 14.64 8 16 C5.36 16 2.72 16 0 16 C0 14.68 0 13.36 0 12 C-1.32 12 -2.64 12 -4 12 C-4 9.36 -4 6.72 -4 4 C-2.68 4 -1.36 4 0 4 C0 2.68 0 1.36 0 0 Z M4 4 C4 5.32 4 6.64 4 8 C5.32 8 6.64 8 8 8 C8 6.68 8 5.36 8 4 C6.68 4 5.36 4 4 4 Z " fill="#000000" transform="translate(212,180)"/>
<path d="M0 0 C5.28 0 10.56 0 16 0 C16 3.96 16 7.92 16 12 C14.68 12 13.36 12 12 12 C12 13.32 12 14.64 12 16 C9.36 16 6.72 16 4 16 C4 14.68 4 13.36 4 12 C2.68 12 1.36 12 0 12 C0 8.04 0 4.08 0 0 Z M4 4 C4 5.32 4 6.64 4 8 C6.64 8 9.28 8 12 8 C12 6.68 12 5.36 12 4 C9.36 4 6.72 4 4 4 Z " fill="#000000" transform="translate(128,312)"/>
<path d="M0 0 C5.28 0 10.56 0 16 0 C16 3.96 16 7.92 16 12 C14.68 12 13.36 12 12 12 C12 13.32 12 14.64 12 16 C9.36 16 6.72 16 4 16 C4 14.68 4 13.36 4 12 C2.68 12 1.36 12 0 12 C0 8.04 0 4.08 0 0 Z M8 4 C8 5.32 8 6.64 8 8 C9.32 8 10.64 8 12 8 C12 6.68 12 5.36 12 4 C10.68 4 9.36 4 8 4 Z " fill="#000000" transform="translate(164,312)"/>
<path d="M0 0 C1.32 0 2.64 0 4 0 C4 1.32 4 2.64 4 4 C2.68 4 1.36 4 0 4 C0 2.68 0 1.36 0 0 Z " fill="#000000" transform="translate(308,328)"/>
<path d="M0 0 C1.32 0 2.64 0 4 0 C4 2.64 4 5.28 4 8 C2.68 8 1.36 8 0 8 C0 5.36 0 2.72 0 0 Z " fill="#000000" transform="translate(916,364)"/>
<path d="M0 0 C1.32 0 2.64 0 4 0 C4 1.32 4 2.64 4 4 C2.68 4 1.36 4 0 4 C0 2.68 0 1.36 0 0 Z " fill="#000000" transform="translate(584,368)"/>
<path d="M0 0 C2.64 0 5.28 0 8 0 C8 2.64 8 5.28 8 8 C6.68 8 5.36 8 4 8 C4 6.68 4 5.36 4 4 C2.68 4 1.36 4 0 4 C0 2.68 0 1.36 0 0 Z " fill="#000000" transform="translate(600,368)"/>
<path d="M0 0 C2.64 0 5.28 0 8 0 C8 1.32 8 2.64 8 4 C6.68 4 5.36 4 4 4 C4 5.32 4 6.64 4 8 C2.68 8 1.36 8 0 8 C0 14.6 0 21.2 0 28 C1.32 28 2.64 28 4 28 C4 29.32 4 30.64 4 32 C9.28 32 14.56 32 20 32 C20 33.32 20 34.64 20 36 C13.4 36 6.8 36 0 36 C0 34.68 0 33.36 0 32 C-1.32 32 -2.64 32 -4 32 C-4 29.36 -4 26.72 -4 24 C-5.32 24 -6.64 24 -8 24 C-8 18.72 -8 13.44 -8 8 C-6.68 8 -5.36 8 -4 8 C-4 6.68 -4 5.36 -4 4 C-2.68 4 -1.36 4 0 4 C0 2.68 0 1.36 0 0 Z " fill="#000000" transform="translate(628,368)"/>
<path d="M0 0 C2.64 0 5.28 0 8 0 C8 1.32 8 2.64 8 4 C9.32 4 10.64 4 12 4 C12 6.64 12 9.28 12 12 C13.32 12 14.64 12 16 12 C16 15.96 16 19.92 16 24 C14.68 24 13.36 24 12 24 C12 26.64 12 29.28 12 32 C9.36 32 6.72 32 4 32 C4 30.68 4 29.36 4 28 C5.32 28 6.64 28 8 28 C8 21.4 8 14.8 8 8 C6.68 8 5.36 8 4 8 C4 6.68 4 5.36 4 4 C2.68 4 1.36 4 0 4 C0 2.68 0 1.36 0 0 Z " fill="#000000" transform="translate(644,368)"/>
<path d="M0 0 C2.64 0 5.28 0 8 0 C8 2.64 8 5.28 8 8 C9.32 8 10.64 8 12 8 C12 10.64 12 13.28 12 16 C13.32 16 14.64 16 16 16 C16 18.64 16 21.28 16 24 C17.32 24 18.64 24 20 24 C20 22.68 20 21.36 20 20 C21.32 20 22.64 20 24 20 C24 22.64 24 25.28 24 28 C22.68 28 21.36 28 20 28 C20 30.64 20 33.28 20 36 C18.68 36 17.36 36 16 36 C16 33.36 16 30.72 16 28 C14.68 28 13.36 28 12 28 C12 25.36 12 22.72 12 20 C10.68 20 9.36 20 8 20 C8 18.68 8 17.36 8 16 C6.68 16 5.36 16 4 16 C4 21.28 4 26.56 4 32 C5.32 32 6.64 32 8 32 C8 33.32 8 34.64 8 36 C5.36 36 2.72 36 0 36 C0 28.08 0 20.16 0 12 C1.32 12 2.64 12 4 12 C4 10.68 4 9.36 4 8 C2.68 8 1.36 8 0 8 C0 5.36 0 2.72 0 0 Z " fill="#000000" transform="translate(676,368)"/>
<path d="M0 0 C2.64 0 5.28 0 8 0 C8 1.32 8 2.64 8 4 C6.68 4 5.36 4 4 4 C4 13.24 4 22.48 4 32 C5.32 32 6.64 32 8 32 C8 33.32 8 34.64 8 36 C5.36 36 2.72 36 0 36 C0 28.08 0 20.16 0 12 C-1.32 12 -2.64 12 -4 12 C-4 9.36 -4 6.72 -4 4 C-2.68 4 -1.36 4 0 4 C0 2.68 0 1.36 0 0 Z " fill="#000000" transform="translate(708,368)"/>
<path d="M0 0 C2.64 0 5.28 0 8 0 C8 1.32 8 2.64 8 4 C9.32 4 10.64 4 12 4 C12 6.64 12 9.28 12 12 C13.32 12 14.64 12 16 12 C16 14.64 16 17.28 16 20 C17.32 20 18.64 20 20 20 C20 21.32 20 22.64 20 24 C21.32 24 22.64 24 24 24 C24 26.64 24 29.28 24 32 C22.68 32 21.36 32 20 32 C20 33.32 20 34.64 20 36 C18.68 36 17.36 36 16 36 C16 32.04 16 28.08 16 24 C14.68 24 13.36 24 12 24 C12 21.36 12 18.72 12 16 C10.68 16 9.36 16 8 16 C8 14.68 8 13.36 8 12 C6.68 12 5.36 12 4 12 C4 9.36 4 6.72 4 4 C2.68 4 1.36 4 0 4 C0 2.68 0 1.36 0 0 Z " fill="#000000" transform="translate(732,368)"/>
<path d="M0 0 C2.64 0 5.28 0 8 0 C8 11.88 8 23.76 8 36 C5.36 36 2.72 36 0 36 C0 29.4 0 22.8 0 16 C-1.32 16 -2.64 16 -4 16 C-4 14.68 -4 13.36 -4 12 C-2.68 12 -1.36 12 0 12 C0 8.04 0 4.08 0 0 Z " fill="#000000" transform="translate(764,368)"/>
<path d="M0 0 C2.64 0 5.28 0 8 0 C8 9.24 8 18.48 8 28 C9.32 28 10.64 28 12 28 C12 29.32 12 30.64 12 32 C14.64 32 17.28 32 20 32 C20 30.68 20 29.36 20 28 C21.32 28 22.64 28 24 28 C24 25.36 24 22.72 24 20 C25.32 20 26.64 20 28 20 C28 23.96 28 27.92 28 32 C26.68 32 25.36 32 24 32 C24 33.32 24 34.64 24 36 C18.72 36 13.44 36 8 36 C8 34.68 8 33.36 8 32 C6.68 32 5.36 32 4 32 C4 30.68 4 29.36 4 28 C2.68 28 1.36 28 0 28 C0 18.76 0 9.52 0 0 Z " fill="#000000" transform="translate(792,368)"/>
<path d="M0 0 C2.64 0 5.28 0 8 0 C8 1.32 8 2.64 8 4 C6.68 4 5.36 4 4 4 C4 5.32 4 6.64 4 8 C2.68 8 1.36 8 0 8 C0 5.36 0 2.72 0 0 Z " fill="#000000" transform="translate(816,368)"/>
<path d="M0 0 C2.64 0 5.28 0 8 0 C8 1.32 8 2.64 8 4 C9.32 4 10.64 4 12 4 C12 5.32 12 6.64 12 8 C13.32 8 14.64 8 16 8 C16 9.32 16 10.64 16 12 C17.32 12 18.64 12 20 12 C20 14.64 20 17.28 20 20 C18.68 20 17.36 20 16 20 C16 18.68 16 17.36 16 16 C14.68 16 13.36 16 12 16 C12 14.68 12 13.36 12 12 C9.36 12 6.72 12 4 12 C4 9.36 4 6.72 4 4 C2.68 4 1.36 4 0 4 C0 2.68 0 1.36 0 0 Z " fill="#000000" transform="translate(840,368)"/>
<path d="M0 0 C2.64 0 5.28 0 8 0 C8 1.32 8 2.64 8 4 C6.68 4 5.36 4 4 4 C4 9.28 4 14.56 4 20 C2.68 20 1.36 20 0 20 C0 13.4 0 6.8 0 0 Z " fill="#000000" transform="translate(868,368)"/>
<path d="M0 0 C2.64 0 5.28 0 8 0 C8 11.88 8 23.76 8 36 C5.36 36 2.72 36 0 36 C0 24.12 0 12.24 0 0 Z " fill="#000000" transform="translate(892,368)"/>
<path d="M0 0 C2.64 0 5.28 0 8 0 C8 11.88 8 23.76 8 36 C5.36 36 2.72 36 0 36 C0 24.12 0 12.24 0 0 Z " fill="#000000" transform="translate(928,368)"/>
<path d="M0 0 C1.32 0 2.64 0 4 0 C4 1.32 4 2.64 4 4 C2.68 4 1.36 4 0 4 C0 2.68 0 1.36 0 0 Z " fill="#000000" transform="translate(944,368)"/>
<path d="M0 0 C3.96 0 7.92 0 12 0 C12 3.96 12 7.92 12 12 C13.32 12 14.64 12 16 12 C16 13.32 16 14.64 16 16 C17.32 16 18.64 16 20 16 C20 22.6 20 29.2 20 36 C17.36 36 14.72 36 12 36 C12 29.4 12 22.8 12 16 C10.68 16 9.36 16 8 16 C8 13.36 8 10.72 8 8 C6.68 8 5.36 8 4 8 C4 6.68 4 5.36 4 4 C2.68 4 1.36 4 0 4 C0 2.68 0 1.36 0 0 Z " fill="#000000" transform="translate(960,368)"/>
<path d="M0 0 C1.32 0 2.64 0 4 0 C4 2.64 4 5.28 4 8 C2.68 8 1.36 8 0 8 C0 5.36 0 2.72 0 0 Z " fill="#000000" transform="translate(984,368)"/>
<path d="M0 0 C2.64 0 5.28 0 8 0 C8 1.32 8 2.64 8 4 C6.68 4 5.36 4 4 4 C4 13.24 4 22.48 4 32 C5.32 32 6.64 32 8 32 C8 33.32 8 34.64 8 36 C4.04 36 0.08 36 -4 36 C-4 34.68 -4 33.36 -4 32 C-2.68 32 -1.36 32 0 32 C0 21.44 0 10.88 0 0 Z " fill="#000000" transform="translate(1028,368)"/>
<path d="M0 0 C2.64 0 5.28 0 8 0 C8 11.88 8 23.76 8 36 C5.36 36 2.72 36 0 36 C0 24.12 0 12.24 0 0 Z " fill="#000000" transform="translate(1064,368)"/>
<path d="M0 0 C2.64 0 5.28 0 8 0 C8 2.64 8 5.28 8 8 C9.32 8 10.64 8 12 8 C12 10.64 12 13.28 12 16 C13.32 16 14.64 16 16 16 C16 18.64 16 21.28 16 24 C17.32 24 18.64 24 20 24 C20 27.96 20 31.92 20 36 C18.68 36 17.36 36 16 36 C16 34.68 16 33.36 16 32 C14.68 32 13.36 32 12 32 C12 28.04 12 24.08 12 20 C10.68 20 9.36 20 8 20 C8 17.36 8 14.72 8 12 C6.68 12 5.36 12 4 12 C4 9.36 4 6.72 4 4 C2.68 4 1.36 4 0 4 C0 2.68 0 1.36 0 0 Z " fill="#000000" transform="translate(1088,368)"/>
<path d="M0 0 C2.64 0 5.28 0 8 0 C8 1.32 8 2.64 8 4 C6.68 4 5.36 4 4 4 C4 5.32 4 6.64 4 8 C2.68 8 1.36 8 0 8 C0 5.36 0 2.72 0 0 Z " fill="#000000" transform="translate(1116,368)"/>
<path d="M0 0 C2.64 0 5.28 0 8 0 C8 10.56 8 21.12 8 32 C9.32 32 10.64 32 12 32 C12 33.32 12 34.64 12 36 C8.04 36 4.08 36 0 36 C0 34.68 0 33.36 0 32 C1.32 32 2.64 32 4 32 C4 22.76 4 13.52 4 4 C2.68 4 1.36 4 0 4 C0 2.68 0 1.36 0 0 Z " fill="#000000" transform="translate(1136,368)"/>
<path d="M0 0 C2.64 0 5.28 0 8 0 C8 1.32 8 2.64 8 4 C9.32 4 10.64 4 12 4 C12 5.32 12 6.64 12 8 C13.32 8 14.64 8 16 8 C16 9.32 16 10.64 16 12 C17.32 12 18.64 12 20 12 C20 14.64 20 17.28 20 20 C18.68 20 17.36 20 16 20 C16 18.68 16 17.36 16 16 C14.68 16 13.36 16 12 16 C12 14.68 12 13.36 12 12 C9.36 12 6.72 12 4 12 C4 9.36 4 6.72 4 4 C2.68 4 1.36 4 0 4 C0 2.68 0 1.36 0 0 Z " fill="#000000" transform="translate(1164,368)"/>
<path d="M0 0 C2.64 0 5.28 0 8 0 C8 1.32 8 2.64 8 4 C6.68 4 5.36 4 4 4 C4 9.28 4 14.56 4 20 C2.68 20 1.36 20 0 20 C0 13.4 0 6.8 0 0 Z " fill="#000000" transform="translate(1192,368)"/>
<path d="M0 0 C2.64 0 5.28 0 8 0 C8 1.32 8 2.64 8 4 C6.68 4 5.36 4 4 4 C4 5.32 4 6.64 4 8 C2.68 8 1.36 8 0 8 C0 13.28 0 18.56 0 24 C1.32 24 2.64 24 4 24 C4 26.64 4 29.28 4 32 C2.68 32 1.36 32 0 32 C0 30.68 0 29.36 0 28 C-1.32 28 -2.64 28 -4 28 C-4 26.68 -4 25.36 -4 24 C-5.32 24 -6.64 24 -8 24 C-8 20.04 -8 16.08 -8 12 C-6.68 12 -5.36 12 -4 12 C-4 9.36 -4 6.72 -4 4 C-2.68 4 -1.36 4 0 4 C0 2.68 0 1.36 0 0 Z " fill="#000000" transform="translate(1220,368)"/>
<path d="M0 0 C2.64 0 5.28 0 8 0 C8 1.32 8 2.64 8 4 C9.32 4 10.64 4 12 4 C12 5.32 12 6.64 12 8 C9.36 8 6.72 8 4 8 C4 6.68 4 5.36 4 4 C2.68 4 1.36 4 0 4 C0 2.68 0 1.36 0 0 Z " fill="#000000" transform="translate(1236,368)"/>
<path d="M0 0 C2.64 0 5.28 0 8 0 C8 1.32 8 2.64 8 4 C6.68 4 5.36 4 4 4 C4 6.64 4 9.28 4 12 C5.32 12 6.64 12 8 12 C8 13.32 8 14.64 8 16 C10.64 16 13.28 16 16 16 C16 18.64 16 21.28 16 24 C17.32 24 18.64 24 20 24 C20 25.32 20 26.64 20 28 C18.68 28 17.36 28 16 28 C16 29.32 16 30.64 16 32 C14.68 32 13.36 32 12 32 C12 28.04 12 24.08 12 20 C9.36 20 6.72 20 4 20 C4 18.68 4 17.36 4 16 C2.68 16 1.36 16 0 16 C0 10.72 0 5.44 0 0 Z " fill="#000000" transform="translate(1288,368)"/>
<path d="M0 0 C1.32 0 2.64 0 4 0 C4 1.32 4 2.64 4 4 C2.68 4 1.36 4 0 4 C0 2.68 0 1.36 0 0 Z " fill="#000000" transform="translate(1300,368)"/>
<path d="M0 0 C2.64 0 5.28 0 8 0 C8 10.56 8 21.12 8 32 C9.32 32 10.64 32 12 32 C12 33.32 12 34.64 12 36 C8.04 36 4.08 36 0 36 C0 24.12 0 12.24 0 0 Z " fill="#000000" transform="translate(1324,368)"/>
<path d="M0 0 C1.32 0 2.64 0 4 0 C4 1.32 4 2.64 4 4 C2.68 4 1.36 4 0 4 C0 2.68 0 1.36 0 0 Z " fill="#000000" transform="translate(1340,368)"/>
<path d="M0 0 C2.64 0 5.28 0 8 0 C8 11.88 8 23.76 8 36 C5.36 36 2.72 36 0 36 C0 24.12 0 12.24 0 0 Z " fill="#000000" transform="translate(1364,368)"/>
<path d="M0 0 C2.64 0 5.28 0 8 0 C8 1.32 8 2.64 8 4 C9.32 4 10.64 4 12 4 C12 6.64 12 9.28 12 12 C10.68 12 9.36 12 8 12 C8 13.32 8 14.64 8 16 C6.68 16 5.36 16 4 16 C4 12.04 4 8.08 4 4 C2.68 4 1.36 4 0 4 C0 2.68 0 1.36 0 0 Z " fill="#000000" transform="translate(1376,368)"/>
<path d="M0 0 C2.64 0 5.28 0 8 0 C8 2.64 8 5.28 8 8 C9.32 8 10.64 8 12 8 C12 11.96 12 15.92 12 20 C13.32 20 14.64 20 16 20 C16 21.32 16 22.64 16 24 C17.32 24 18.64 24 20 24 C20 26.64 20 29.28 20 32 C17.36 32 14.72 32 12 32 C12 29.36 12 26.72 12 24 C10.68 24 9.36 24 8 24 C8 21.36 8 18.72 8 16 C6.68 16 5.36 16 4 16 C4 12.04 4 8.08 4 4 C2.68 4 1.36 4 0 4 C0 2.68 0 1.36 0 0 Z " fill="#000000" transform="translate(1400,368)"/>
<path d="M0 0 C2.64 0 5.28 0 8 0 C8 2.64 8 5.28 8 8 C6.68 8 5.36 8 4 8 C4 10.64 4 13.28 4 16 C2.68 16 1.36 16 0 16 C0 18.64 0 21.28 0 24 C-1.32 24 -2.64 24 -4 24 C-4 20.04 -4 16.08 -4 12 C-2.68 12 -1.36 12 0 12 C0 8.04 0 4.08 0 0 Z " fill="#000000" transform="translate(1424,368)"/>
<path d="M0 0 C2.64 0 5.28 0 8 0 C8 11.88 8 23.76 8 36 C5.36 36 2.72 36 0 36 C0 24.12 0 12.24 0 0 Z " fill="#000000" transform="translate(1448,368)"/>
<path d="M0 0 C2.64 0 5.28 0 8 0 C8 1.32 8 2.64 8 4 C6.68 4 5.36 4 4 4 C4 5.32 4 6.64 4 8 C2.68 8 1.36 8 0 8 C0 14.6 0 21.2 0 28 C1.32 28 2.64 28 4 28 C4 29.32 4 30.64 4 32 C1.36 32 -1.28 32 -4 32 C-4 29.36 -4 26.72 -4 24 C-5.32 24 -6.64 24 -8 24 C-8 18.72 -8 13.44 -8 8 C-6.68 8 -5.36 8 -4 8 C-4 6.68 -4 5.36 -4 4 C-2.68 4 -1.36 4 0 4 C0 2.68 0 1.36 0 0 Z " fill="#000000" transform="translate(1480,368)"/>
<path d="M0 0 C2.64 0 5.28 0 8 0 C8 1.32 8 2.64 8 4 C9.32 4 10.64 4 12 4 C12 5.32 12 6.64 12 8 C9.36 8 6.72 8 4 8 C4 6.68 4 5.36 4 4 C2.68 4 1.36 4 0 4 C0 2.68 0 1.36 0 0 Z " fill="#000000" transform="translate(1496,368)"/>
<path d="M0 0 C3.96 0 7.92 0 12 0 C12 1.32 12 2.64 12 4 C10.68 4 9.36 4 8 4 C8 7.96 8 11.92 8 16 C9.32 16 10.64 16 12 16 C12 17.32 12 18.64 12 20 C10.68 20 9.36 20 8 20 C8 23.96 8 27.92 8 32 C9.32 32 10.64 32 12 32 C12 33.32 12 34.64 12 36 C8.04 36 4.08 36 0 36 C0 34.68 0 33.36 0 32 C1.32 32 2.64 32 4 32 C4 22.76 4 13.52 4 4 C2.68 4 1.36 4 0 4 C0 2.68 0 1.36 0 0 Z " fill="#000000" transform="translate(1520,368)"/>
<path d="M0 0 C2.64 0 5.28 0 8 0 C8 1.32 8 2.64 8 4 C5.36 4 2.72 4 0 4 C0 2.68 0 1.36 0 0 Z " fill="#000000" transform="translate(1536,368)"/>
<path d="M0 0 C1.32 0 2.64 0 4 0 C4 3.96 4 7.92 4 12 C5.32 12 6.64 12 8 12 C8 13.32 8 14.64 8 16 C9.32 16 10.64 16 12 16 C12 17.32 12 18.64 12 20 C13.32 20 14.64 20 16 20 C16 23.96 16 27.92 16 32 C14.68 32 13.36 32 12 32 C12 29.36 12 26.72 12 24 C10.68 24 9.36 24 8 24 C8 22.68 8 21.36 8 20 C6.68 20 5.36 20 4 20 C4 18.68 4 17.36 4 16 C2.68 16 1.36 16 0 16 C0 14.68 0 13.36 0 12 C-1.32 12 -2.64 12 -4 12 C-4 9.36 -4 6.72 -4 4 C-2.68 4 -1.36 4 0 4 C0 2.68 0 1.36 0 0 Z " fill="#000000" transform="translate(1564,368)"/>
<path d="M0 0 C1.32 0 2.64 0 4 0 C4 1.32 4 2.64 4 4 C2.68 4 1.36 4 0 4 C0 2.68 0 1.36 0 0 Z " fill="#000000" transform="translate(1576,368)"/>
<path d="M0 0 C2.64 0 5.28 0 8 0 C8 1.32 8 2.64 8 4 C6.68 4 5.36 4 4 4 C4 9.28 4 14.56 4 20 C5.32 20 6.64 20 8 20 C8 21.32 8 22.64 8 24 C9.32 24 10.64 24 12 24 C12 25.32 12 26.64 12 28 C17.28 28 22.56 28 28 28 C28 29.32 28 30.64 28 32 C21.4 32 14.8 32 8 32 C8 30.68 8 29.36 8 28 C6.68 28 5.36 28 4 28 C4 26.68 4 25.36 4 24 C2.68 24 1.36 24 0 24 C0 21.36 0 18.72 0 16 C-1.32 16 -2.64 16 -4 16 C-4 13.36 -4 10.72 -4 8 C-2.68 8 -1.36 8 0 8 C0 5.36 0 2.72 0 0 Z " fill="#000000" transform="translate(576,372)"/>
<path d="M0 0 C1.32 0 2.64 0 4 0 C4 1.32 4 2.64 4 4 C2.68 4 1.36 4 0 4 C0 2.68 0 1.36 0 0 Z " fill="#000000" transform="translate(980,376)"/>
<path d="M0 0 C1.32 0 2.64 0 4 0 C4 2.64 4 5.28 4 8 C2.68 8 1.36 8 0 8 C0 5.36 0 2.72 0 0 Z " fill="#000000" transform="translate(1112,376)"/>
<path d="M0 0 C1.32 0 2.64 0 4 0 C4 2.64 4 5.28 4 8 C2.68 8 1.36 8 0 8 C0 5.36 0 2.72 0 0 Z " fill="#000000" transform="translate(700,380)"/>
<path d="M0 0 C1.32 0 2.64 0 4 0 C4 3.96 4 7.92 4 12 C2.68 12 1.36 12 0 12 C0 8.04 0 4.08 0 0 Z " fill="#000000" transform="translate(1164,380)"/>
<path d="M0 0 C1.32 0 2.64 0 4 0 C4 2.64 4 5.28 4 8 C2.68 8 1.36 8 0 8 C0 5.36 0 2.72 0 0 Z " fill="#000000" transform="translate(1536,380)"/>
<path d="M0 0 C1.32 0 2.64 0 4 0 C4 6.6 4 13.2 4 20 C1.36 20 -1.28 20 -4 20 C-4 17.36 -4 14.72 -4 12 C-2.68 12 -1.36 12 0 12 C0 8.04 0 4.08 0 0 Z " fill="#000000" transform="translate(736,384)"/>
<path d="M0 0 C1.32 0 2.64 0 4 0 C4 2.64 4 5.28 4 8 C2.68 8 1.36 8 0 8 C0 5.36 0 2.72 0 0 Z " fill="#000000" transform="translate(756,384)"/>
<path d="M0 0 C1.32 0 2.64 0 4 0 C4 1.32 4 2.64 4 4 C2.68 4 1.36 4 0 4 C0 2.68 0 1.36 0 0 Z " fill="#000000" transform="translate(840,384)"/>
<path d="M0 0 C1.32 0 2.64 0 4 0 C4 2.64 4 5.28 4 8 C2.68 8 1.36 8 0 8 C0 5.36 0 2.72 0 0 Z " fill="#000000" transform="translate(1108,384)"/>
<path d="M0 0 C2.64 0 5.28 0 8 0 C8 1.32 8 2.64 8 4 C5.36 4 2.72 4 0 4 C0 2.68 0 1.36 0 0 Z " fill="#000000" transform="translate(1336,384)"/>
<path d="M0 0 C1.32 0 2.64 0 4 0 C4 1.32 4 2.64 4 4 C5.32 4 6.64 4 8 4 C8 6.64 8 9.28 8 12 C9.32 12 10.64 12 12 12 C12 13.32 12 14.64 12 16 C13.32 16 14.64 16 16 16 C16 17.32 16 18.64 16 20 C13.36 20 10.72 20 8 20 C8 18.68 8 17.36 8 16 C6.68 16 5.36 16 4 16 C4 13.36 4 10.72 4 8 C2.68 8 1.36 8 0 8 C0 5.36 0 2.72 0 0 Z " fill="#000000" transform="translate(1376,384)"/>
<path d="M0 0 C1.32 0 2.64 0 4 0 C4 1.32 4 2.64 4 4 C6.64 4 9.28 4 12 4 C12 7.96 12 11.92 12 16 C10.68 16 9.36 16 8 16 C8 14.68 8 13.36 8 12 C6.68 12 5.36 12 4 12 C4 10.68 4 9.36 4 8 C2.68 8 1.36 8 0 8 C0 5.36 0 2.72 0 0 Z " fill="#000000" transform="translate(860,388)"/>
<path d="M0 0 C1.32 0 2.64 0 4 0 C4 1.32 4 2.64 4 4 C6.64 4 9.28 4 12 4 C12 7.96 12 11.92 12 16 C10.68 16 9.36 16 8 16 C8 14.68 8 13.36 8 12 C6.68 12 5.36 12 4 12 C4 10.68 4 9.36 4 8 C2.68 8 1.36 8 0 8 C0 5.36 0 2.72 0 0 Z " fill="#000000" transform="translate(1184,388)"/>
<path d="M0 0 C3.96 0 7.92 0 12 0 C12 3.96 12 7.92 12 12 C10.68 12 9.36 12 8 12 C8 13.32 8 14.64 8 16 C1.4 16 -5.2 16 -12 16 C-12 14.68 -12 13.36 -12 12 C-6.72 12 -1.44 12 4 12 C4 9.36 4 6.72 4 4 C2.68 4 1.36 4 0 4 C0 2.68 0 1.36 0 0 Z " fill="#000000" transform="translate(1236,388)"/>
<path d="M0 0 C1.32 0 2.64 0 4 0 C4 1.32 4 2.64 4 4 C5.32 4 6.64 4 8 4 C8 6.64 8 9.28 8 12 C5.36 12 2.72 12 0 12 C0 8.04 0 4.08 0 0 Z " fill="#000000" transform="translate(840,392)"/>
<path d="M0 0 C1.32 0 2.64 0 4 0 C4 1.32 4 2.64 4 4 C2.68 4 1.36 4 0 4 C0 2.68 0 1.36 0 0 Z " fill="#000000" transform="translate(604,396)"/>
<path d="M0 0 C1.32 0 2.64 0 4 0 C4 2.64 4 5.28 4 8 C1.36 8 -1.28 8 -4 8 C-4 6.68 -4 5.36 -4 4 C-2.68 4 -1.36 4 0 4 C0 2.68 0 1.36 0 0 Z " fill="#000000" transform="translate(1048,396)"/>
<path d="M0 0 C2.64 0 5.28 0 8 0 C8 2.64 8 5.28 8 8 C5.36 8 2.72 8 0 8 C0 5.36 0 2.72 0 0 Z " fill="#000000" transform="translate(1164,396)"/>
<path d="M0 0 C1.32 0 2.64 0 4 0 C4 1.32 4 2.64 4 4 C2.68 4 1.36 4 0 4 C0 2.68 0 1.36 0 0 Z " fill="#000000" transform="translate(1284,396)"/>
<path d="M0 0 C1.32 0 2.64 0 4 0 C4 2.64 4 5.28 4 8 C1.36 8 -1.28 8 -4 8 C-4 6.68 -4 5.36 -4 4 C-2.68 4 -1.36 4 0 4 C0 2.68 0 1.36 0 0 Z " fill="#000000" transform="translate(1344,396)"/>
<path d="M0 0 C2.64 0 5.28 0 8 0 C8 1.32 8 2.64 8 4 C6.68 4 5.36 4 4 4 C4 5.32 4 6.64 4 8 C-2.6 8 -9.2 8 -16 8 C-16 6.68 -16 5.36 -16 4 C-10.72 4 -5.44 4 0 4 C0 2.68 0 1.36 0 0 Z " fill="#000000" transform="translate(1500,396)"/>
<path d="M0 0 C1.32 0 2.64 0 4 0 C4 2.64 4 5.28 4 8 C1.36 8 -1.28 8 -4 8 C-4 6.68 -4 5.36 -4 4 C-2.68 4 -1.36 4 0 4 C0 2.68 0 1.36 0 0 Z " fill="#000000" transform="translate(1544,396)"/>
<path d="M0 0 C1.32 0 2.64 0 4 0 C4 1.32 4 2.64 4 4 C5.32 4 6.64 4 8 4 C8 5.32 8 6.64 8 8 C5.36 8 2.72 8 0 8 C0 5.36 0 2.72 0 0 Z " fill="#000000" transform="translate(1560,396)"/>
<path d="M0 0 C3.96 0 7.92 0 12 0 C12 1.32 12 2.64 12 4 C8.04 4 4.08 4 0 4 C0 2.68 0 1.36 0 0 Z " fill="#000000" transform="translate(1288,400)"/>
<path d="M0 0 C1.32 0 2.64 0 4 0 C4 1.32 4 2.64 4 4 C2.68 4 1.36 4 0 4 C0 2.68 0 1.36 0 0 Z " fill="#000000" transform="translate(1572,400)"/>
<path d="M0 0 C1.32 0 2.64 0 4 0 C4 1.32 4 2.64 4 4 C2.68 4 1.36 4 0 4 C0 2.68 0 1.36 0 0 Z " fill="#000000" transform="translate(356,476)"/>
</svg>
